<?xml version="1.0" standalone="no"?>
<!DOCTYPE svg PUBLIC "-//W3C//DTD SVG 20010904//EN"
 "http://www.w3.org/TR/2001/REC-SVG-20010904/DTD/svg10.dtd">
<svg version="1.0" xmlns="http://www.w3.org/2000/svg"
 width="900.000000pt" height="900.000000pt" viewBox="0 0 900.000000 900.000000"
 preserveAspectRatio="xMidYMid meet">
<metadata>
Created by potrace 1.10, written by Peter Selinger 2001-2011
</metadata>
<g transform="translate(0.000000,900.000000) scale(0.100000,-0.100000)"
fill="#fe0b0b" stroke="none">
<path d="M4812 8733 c-9 -7 -36 -13 -58 -13 -24 0 -47 -6 -54 -15 -7 -8 -29
-15 -50 -15 -21 0 -43 -7 -50 -15 -7 -8 -27 -15 -44 -15 -17 0 -40 -7 -50 -15
-11 -8 -29 -15 -41 -15 -12 0 -30 -7 -41 -15 -10 -8 -28 -15 -40 -15 -11 0
-29 -7 -40 -15 -10 -8 -29 -15 -40 -15 -12 0 -27 -7 -34 -15 -7 -8 -22 -15
-34 -15 -11 0 -30 -7 -40 -15 -11 -8 -27 -15 -37 -15 -9 0 -22 -7 -29 -15 -7
-8 -23 -15 -35 -15 -12 0 -28 -7 -35 -15 -7 -8 -18 -15 -24 -15 -13 0 -315
-151 -361 -181 -16 -10 -42 -24 -57 -30 -16 -6 -28 -14 -28 -19 0 -4 -8 -11
-17 -14 -10 -3 -27 -12 -38 -19 -230 -143 -446 -336 -499 -445 -10 -20 -25
-49 -32 -64 -21 -40 -18 -140 6 -187 21 -38 103 -121 121 -121 5 0 9 -4 9 -9
0 -5 14 -14 31 -20 30 -10 31 -12 24 -53 -7 -45 -8 -120 -3 -178 l3 -35 -55
-6 c-30 -3 -68 -11 -83 -17 -16 -7 -41 -12 -56 -12 -16 0 -45 -7 -64 -15 -20
-8 -49 -15 -65 -15 -15 0 -37 -7 -48 -15 -10 -8 -33 -15 -50 -15 -16 0 -39 -7
-50 -15 -10 -8 -30 -15 -44 -15 -14 0 -34 -7 -44 -15 -11 -8 -29 -15 -41 -15
-12 0 -25 -4 -30 -9 -6 -5 -32 -11 -60 -13 l-50 -3 -3 113 c-1 61 -7 112 -12
112 -4 0 -19 -17 -31 -37 -13 -21 -27 -41 -33 -45 -5 -3 -10 -17 -11 -30 -1
-17 -8 -24 -28 -26 -15 -2 -27 -6 -27 -10 1 -17 28 -84 38 -94 7 -7 12 -18 12
-26 0 -8 14 -34 30 -59 17 -24 30 -50 30 -57 0 -8 7 -16 15 -20 8 -3 15 -10
15 -16 0 -16 87 -128 138 -176 26 -25 39 -45 33 -49 -6 -3 -14 1 -17 9 -3 9
-10 16 -15 16 -20 0 -167 162 -218 240 -50 76 -52 80 -93 162 -51 103 -68 143
-68 165 -1 10 -7 29 -15 43 -8 14 -14 42 -15 63 0 22 -7 64 -16 95 -13 42 -15
79 -11 144 4 69 3 88 -7 88 -8 0 -20 -10 -29 -22 -8 -13 -24 -34 -36 -47 -11
-13 -21 -30 -21 -36 0 -7 -7 -18 -15 -25 -8 -7 -15 -25 -15 -41 0 -19 -5 -29
-15 -29 -8 0 -15 3 -15 8 -1 30 -50 38 -50 7 0 -7 -6 -18 -14 -24 -18 -15 -56
-87 -56 -105 0 -8 -7 -27 -15 -42 -8 -16 -15 -41 -15 -55 0 -15 -7 -29 -15
-33 -19 -7 -19 -26 0 -62 8 -16 15 -36 15 -44 0 -8 7 -24 15 -34 8 -11 15 -26
15 -33 0 -17 137 -241 160 -263 3 -3 23 -27 45 -55 97 -123 279 -277 392 -330
17 -9 35 -20 38 -24 3 -5 20 -13 37 -17 18 -3 39 -10 48 -15 8 -4 23 -10 33
-13 9 -3 17 -10 17 -16 0 -17 -93 -10 -135 10 -22 11 -46 19 -52 20 -7 0 -13
5 -13 10 0 6 -8 10 -18 10 -11 0 -29 9 -42 20 -13 11 -27 20 -32 20 -12 0
-122 75 -198 136 -75 59 -161 149 -206 214 -42 60 -104 176 -104 193 0 8 -7
28 -15 43 -8 16 -15 41 -15 55 0 15 -7 44 -16 65 -15 36 -15 73 1 137 6 20 4
27 -7 27 -20 0 -38 -21 -38 -45 0 -12 -5 -26 -11 -32 -6 -6 -12 -27 -14 -46
-2 -19 -11 -47 -20 -61 -14 -22 -16 -40 -10 -113 6 -80 5 -90 -14 -115 l-22
-27 33 -53 c50 -83 115 -164 189 -236 93 -92 126 -122 134 -122 4 0 33 -20 65
-45 32 -25 63 -45 68 -45 5 0 15 -7 22 -15 7 -8 21 -15 32 -15 10 0 21 -7 24
-15 4 -8 14 -15 24 -15 10 0 23 -7 30 -15 7 -8 23 -15 35 -15 12 0 28 -7 35
-15 7 -8 21 -15 32 -15 11 0 32 -6 46 -14 15 -8 44 -18 65 -21 21 -3 35 -10
32 -16 -9 -14 -96 -11 -127 5 -14 8 -45 17 -67 21 -23 4 -43 11 -47 16 -3 5
-12 9 -21 9 -9 0 -37 10 -62 21 -25 12 -62 29 -81 38 -19 9 -37 18 -40 21 -3
3 -27 16 -53 30 -72 37 -207 151 -258 217 -43 54 -109 177 -109 200 0 6 -7 24
-15 39 -18 35 -19 58 -3 85 11 17 10 22 -5 33 -9 7 -17 22 -17 32 -1 23 -23
54 -39 54 -6 0 -11 -14 -11 -30 0 -17 -6 -43 -14 -58 -9 -18 -14 -68 -15 -156
-1 -107 -4 -131 -18 -141 -15 -11 -14 -14 6 -36 12 -13 32 -37 44 -54 56 -77
273 -269 337 -298 8 -4 29 -16 45 -27 17 -11 37 -22 45 -26 8 -3 29 -11 45
-18 30 -13 79 -32 145 -56 19 -6 57 -16 83 -21 27 -4 54 -12 60 -17 7 -5 43
-12 80 -15 78 -7 88 -12 80 -33 -5 -13 -19 -15 -77 -11 -112 7 -248 26 -260
36 -6 5 -32 12 -59 16 -26 4 -50 11 -53 16 -3 5 -12 9 -21 9 -33 0 -167 77
-246 140 -129 103 -267 285 -267 350 0 11 -5 20 -11 20 -7 0 -8 11 -4 29 3 17
2 32 -4 36 -6 3 -11 15 -11 26 0 10 -7 19 -15 19 -12 0 -15 -15 -15 -78 l0
-77 -60 -45 c-33 -25 -60 -48 -60 -52 0 -5 -16 -8 -35 -8 -31 0 -48 -12 -141
-102 -58 -57 -114 -106 -125 -110 -10 -4 -19 -12 -19 -18 0 -5 -6 -10 -12 -10
-13 -1 -58 -63 -58 -80 0 -4 -7 -10 -15 -14 -8 -3 -15 -14 -15 -24 0 -10 -5
-23 -11 -29 -16 -16 -114 -206 -156 -303 -9 -19 -22 -48 -29 -63 -8 -16 -14
-38 -14 -50 -1 -12 -7 -33 -15 -47 -8 -14 -14 -40 -15 -58 0 -18 -7 -49 -15
-69 -21 -51 -21 -444 0 -523 21 -79 21 -416 0 -467 -8 -19 -15 -48 -15 -63 0
-15 -7 -33 -15 -40 -8 -7 -15 -25 -15 -40 0 -15 -7 -33 -15 -40 -8 -7 -15 -23
-15 -35 0 -12 -7 -28 -15 -35 -8 -7 -15 -22 -15 -34 0 -12 -7 -31 -15 -42 -8
-10 -15 -28 -15 -40 0 -11 -7 -29 -15 -40 -8 -10 -15 -31 -15 -45 0 -15 -7
-43 -15 -63 -22 -53 -22 -376 0 -429 8 -20 15 -47 15 -59 0 -13 7 -32 15 -42
8 -11 15 -30 15 -42 0 -12 7 -27 15 -34 8 -7 15 -20 15 -29 0 -9 5 -22 11 -28
13 -13 33 -47 48 -80 6 -13 15 -23 21 -23 5 0 10 -7 10 -16 0 -9 11 -28 24
-42 84 -93 96 -104 96 -90 0 9 -7 21 -15 28 -8 7 -15 18 -15 25 0 8 -4 15 -8
17 -11 4 -104 162 -126 213 -10 22 -22 49 -27 60 -17 37 -49 147 -49 169 0 48
19 42 96 -31 42 -40 83 -73 91 -73 7 0 16 -7 19 -15 4 -8 15 -15 25 -15 17 0
18 3 7 22 -7 12 -19 28 -25 36 -7 7 -13 20 -13 28 0 8 -3 14 -8 14 -4 0 -18
21 -32 48 -14 26 -30 53 -37 60 -7 7 -13 22 -13 31 0 10 -7 24 -15 31 -8 7
-15 20 -15 29 0 9 -7 25 -15 35 -8 11 -15 32 -15 47 0 14 -7 32 -15 39 -21 17
-21 123 0 140 8 7 15 19 15 27 0 12 14 14 75 11 77 -3 93 5 60 32 -8 7 -15 21
-15 32 0 10 -7 30 -16 44 -12 17 -14 28 -7 35 13 13 51 -8 59 -33 9 -30 167
-182 242 -233 81 -55 81 -55 137 -81 22 -11 42 -21 45 -24 15 -15 134 -70 151
-70 11 0 22 -7 25 -15 7 -16 64 -21 64 -6 0 5 -14 12 -31 16 -22 5 -28 10 -21
17 8 8 19 6 36 -6 14 -9 30 -16 36 -16 10 0 156 -55 232 -87 23 -10 35 -20 31
-29 -4 -11 5 -14 37 -14 27 0 51 -7 67 -20 18 -14 41 -20 77 -20 29 0 59 -7
70 -15 14 -11 47 -15 117 -15 63 0 109 -5 132 -15 27 -11 74 -15 184 -14 160
0 223 11 139 22 -27 4 -108 7 -181 7 -147 0 -205 14 -205 50 0 20 8 20 318 21
174 0 353 4 397 9 210 22 281 32 289 41 6 5 28 9 50 9 23 0 54 7 70 15 15 8
50 15 77 15 37 0 49 4 49 15 0 11 12 15 44 15 30 0 46 5 50 15 3 9 19 15 41
15 22 0 38 6 41 15 4 8 18 15 34 15 15 0 33 7 40 15 7 8 25 15 40 15 16 0 30
7 34 15 3 9 18 15 36 15 20 0 30 5 30 15 0 10 10 15 30 15 20 0 30 5 30 15 0
10 10 15 30 15 20 0 30 5 30 15 0 9 9 15 25 15 14 0 28 7 31 15 4 8 14 15 25
15 10 0 22 6 26 13 9 13 93 57 111 57 6 0 12 3 14 8 2 4 22 17 46 30 32 17 47
20 61 12 13 -7 22 -7 26 0 3 5 -1 10 -9 10 -9 0 -16 5 -16 11 0 8 15 9 45 5
29 -5 45 -4 45 3 0 6 5 11 11 11 11 0 429 248 439 260 3 3 34 24 70 45 36 21
90 55 120 75 30 21 91 60 135 88 44 29 87 56 95 62 54 37 122 80 126 80 3 0
10 5 17 10 26 23 331 215 395 249 15 8 33 20 40 28 7 7 17 13 21 13 5 0 51 25
102 56 117 71 202 117 349 191 63 32 117 61 120 64 3 4 16 10 30 14 13 4 30
14 38 21 7 8 22 14 31 14 10 0 24 7 31 15 7 8 25 15 41 15 16 0 37 4 47 9 48
23 90 40 115 45 15 4 27 11 27 16 0 6 13 10 29 10 16 0 34 7 41 15 7 8 20 15
29 15 10 0 26 7 37 15 10 8 31 15 45 15 15 0 32 7 39 15 7 8 27 15 44 15 18 0
41 7 52 15 10 8 35 15 54 15 20 0 44 6 55 14 11 7 40 16 65 19 25 3 68 10 95
16 131 27 255 41 425 47 184 6 385 -5 445 -25 17 -6 42 -13 58 -16 15 -3 27
-12 27 -20 0 -13 -30 -15 -197 -15 -108 0 -193 -3 -189 -7 14 -14 83 -33 124
-33 23 0 59 -7 79 -15 19 -8 52 -15 73 -15 45 0 60 -15 53 -52 -4 -22 -11 -28
-32 -28 -14 0 -35 -7 -45 -15 -11 -8 -27 -15 -36 -15 -9 0 -24 -8 -33 -18 -16
-18 -15 -20 28 -41 24 -12 47 -26 50 -32 13 -19 24 -8 28 29 2 20 4 5 5 -35 1
-40 -1 -73 -5 -74 -105 -10 -187 -20 -223 -28 -25 -6 -100 -10 -167 -11 -67 0
-124 -4 -128 -9 -10 -17 31 -31 90 -31 30 0 72 -7 92 -15 19 -8 44 -15 55 -15
11 0 32 -6 46 -14 15 -8 34 -17 42 -21 58 -24 138 -88 144 -115 6 -33 -18 -68
-52 -76 -15 -3 -46 -13 -69 -21 -47 -17 -210 -14 -355 6 -55 8 -101 8 -165 1
-48 -6 -128 -14 -178 -16 -49 -3 -107 -12 -128 -20 -20 -8 -53 -14 -71 -14
-18 0 -50 -7 -69 -15 -20 -8 -49 -15 -65 -15 -15 0 -37 -7 -48 -15 -10 -8 -32
-15 -49 -15 -16 0 -41 -7 -55 -15 -14 -8 -35 -14 -46 -15 -12 0 -27 -7 -34
-15 -7 -8 -23 -15 -35 -15 -13 0 -36 -6 -52 -14 -29 -15 -82 -38 -143 -64 -19
-8 -42 -19 -50 -24 -8 -4 -22 -11 -30 -14 -19 -7 -437 -216 -505 -253 -27 -14
-54 -32 -58 -38 -4 -7 -15 -13 -23 -13 -9 0 -42 -20 -74 -45 -32 -25 -61 -45
-64 -45 -2 0 -24 -17 -48 -39 -24 -21 -56 -50 -73 -64 l-30 -26 28 -1 c17 0
27 -5 27 -15 0 -8 -4 -15 -8 -15 -4 0 -17 -7 -27 -15 -11 -8 -60 -45 -110 -82
-49 -37 -96 -73 -104 -81 -8 -8 -87 -69 -175 -135 -89 -66 -163 -123 -166
-126 -3 -4 -23 -19 -45 -36 -22 -16 -42 -32 -45 -35 -8 -11 -482 -365 -556
-416 -38 -26 -102 -70 -142 -98 -88 -61 -122 -83 -142 -93 -8 -4 -42 -25 -75
-47 -77 -52 -90 -59 -145 -89 -25 -14 -61 -34 -80 -45 -81 -47 -311 -158 -410
-197 -25 -9 -54 -21 -65 -26 -32 -14 -107 -40 -140 -48 -16 -5 -41 -13 -55
-19 -35 -14 -120 -36 -215 -56 -44 -10 -111 -25 -150 -33 -57 -14 -135 -17
-442 -17 -333 0 -422 -5 -350 -21 68 -15 471 -22 583 -11 65 7 85 6 105 -6 13
-9 36 -18 51 -22 39 -9 44 -38 12 -73 -14 -15 -30 -37 -35 -48 -5 -11 -13 -27
-18 -35 -6 -8 -12 -26 -15 -40 -3 -14 -49 -70 -103 -126 -54 -55 -107 -118
-118 -140 -11 -21 -26 -45 -32 -52 -7 -7 -13 -23 -13 -35 0 -12 -7 -31 -15
-41 -21 -28 -21 -194 0 -222 8 -10 15 -27 15 -38 0 -19 53 -92 82 -114 9 -7
24 -19 32 -27 8 -8 25 -20 38 -25 13 -6 37 -19 53 -30 17 -11 39 -24 50 -29
58 -26 165 -149 165 -189 1 -9 7 -28 15 -42 8 -14 14 -44 15 -68 0 -24 5 -53
11 -64 6 -11 15 -44 19 -72 23 -145 103 -242 216 -261 96 -17 305 -5 356 21
15 8 40 14 55 14 15 0 37 7 47 15 11 8 29 15 41 15 12 0 30 7 41 15 10 8 27
15 36 15 14 0 52 16 98 42 8 4 22 11 30 14 27 10 85 36 100 45 8 5 22 12 30
15 31 12 36 15 65 34 17 11 37 22 45 26 8 3 22 10 30 15 8 5 21 11 28 14 32
13 39 16 67 35 32 20 53 32 125 71 25 14 72 43 105 64 33 22 67 43 75 48 8 4
29 16 45 27 17 11 36 23 43 26 7 4 143 94 303 200 160 107 293 194 296 194 3
0 22 13 42 28 20 16 43 32 51 35 8 4 29 16 45 27 17 11 37 23 45 27 8 4 43 26
78 50 35 24 66 43 69 43 4 0 15 8 25 17 15 13 21 14 31 4 9 -9 8 -18 -6 -42
-9 -17 -17 -36 -17 -44 0 -7 -7 -18 -15 -25 -8 -7 -15 -22 -15 -34 0 -11 -7
-30 -15 -40 -8 -11 -15 -31 -15 -45 0 -14 -7 -35 -15 -45 -8 -11 -15 -37 -15
-58 0 -22 -6 -51 -14 -66 -16 -31 -21 -168 -6 -177 6 -4 12 1 15 9 7 24 14 39
28 61 100 164 277 385 420 526 217 214 268 262 274 256 7 -8 -12 -48 -36 -74
-30 -34 -81 -101 -81 -108 0 -3 -26 -41 -58 -83 -32 -42 -62 -84 -65 -92 -4
-8 -16 -28 -27 -45 -11 -16 -23 -37 -27 -45 -4 -8 -19 -33 -33 -55 -45 -72
-50 -80 -59 -102 -6 -11 -15 -24 -20 -28 -6 -3 -11 -14 -11 -24 0 -10 -7 -24
-15 -31 -8 -7 -15 -20 -15 -30 0 -10 -7 -23 -15 -30 -8 -7 -15 -20 -15 -30 0
-10 -7 -23 -15 -30 -8 -7 -15 -22 -15 -34 0 -11 -7 -30 -15 -40 -8 -11 -15
-29 -15 -40 0 -12 -7 -30 -15 -40 -8 -11 -15 -34 -15 -50 0 -17 -7 -40 -15
-50 -9 -11 -15 -41 -15 -69 0 -26 -5 -57 -11 -69 -14 -26 -17 -177 -4 -178 6
-1 12 7 15 17 4 16 37 74 83 148 21 33 219 299 236 316 9 9 36 40 61 70 25 30
105 113 179 184 74 72 184 178 244 238 60 59 113 104 118 101 5 -3 9 -21 9
-40 0 -20 5 -45 12 -57 7 -12 15 -68 18 -124 3 -59 11 -108 18 -115 18 -18 16
169 -3 257 -25 121 -23 130 51 218 36 42 70 77 74 77 14 0 31 -63 37 -135 4
-55 2 -78 -11 -103 -20 -39 -21 -82 -2 -82 8 0 18 5 22 11 12 21 24 -14 24
-76 0 -33 7 -78 15 -100 8 -22 14 -60 15 -85 0 -25 7 -67 15 -94 8 -27 15 -71
15 -97 0 -26 7 -74 15 -106 8 -31 15 -96 16 -143 1 -95 11 -147 23 -118 11 24
1 291 -13 373 -56 328 -62 389 -53 540 10 153 17 173 103 265 34 36 71 81 84
100 12 19 35 49 50 65 53 57 234 254 335 365 70 76 95 106 153 185 37 50 71
95 75 100 4 6 18 28 32 50 13 22 36 56 52 76 15 20 28 43 28 51 0 16 41 58 56
58 18 0 45 -41 39 -59 -3 -10 4 -29 16 -44 16 -22 29 -27 64 -27 26 0 47 -6
55 -15 7 -8 19 -15 27 -15 8 0 23 -10 34 -22 24 -30 28 -178 4 -198 -8 -7 -15
-23 -15 -35 0 -68 -74 -171 -229 -319 -226 -217 -357 -357 -431 -465 -14 -20
-28 -37 -32 -39 -5 -2 -8 -8 -8 -14 0 -6 -13 -27 -30 -48 -16 -21 -30 -40 -30
-43 0 -3 -13 -25 -29 -49 -39 -58 -106 -186 -137 -262 -13 -33 -29 -69 -34
-78 -6 -10 -10 -28 -10 -40 -1 -13 -7 -34 -15 -48 -18 -32 -20 -103 -2 -98 6
3 13 23 15 45 2 23 10 47 18 53 7 7 14 25 14 40 0 15 7 33 15 40 8 7 15 23 15
35 0 12 7 28 15 35 8 7 15 20 15 29 1 9 12 34 25 56 14 22 28 47 31 55 15 38
22 50 80 135 22 33 56 83 74 110 19 28 44 61 56 75 12 14 55 63 95 110 71 84
177 191 360 365 134 127 197 206 251 315 29 60 33 207 5 237 -9 11 -17 23 -17
26 0 16 -100 102 -161 138 -74 44 -139 99 -139 116 0 24 -72 150 -113 197 -23
27 -53 62 -66 78 -28 32 -105 88 -124 88 -7 0 -21 7 -31 15 -11 8 -31 15 -45
15 -14 0 -35 7 -45 15 -12 9 -42 15 -74 15 -49 0 -58 4 -105 45 -29 25 -61 45
-72 45 -11 0 -29 7 -39 15 -11 8 -32 15 -47 15 -15 0 -30 4 -33 8 -3 5 -52 12
-108 15 -57 4 -121 14 -143 22 -52 19 -120 19 -181 0 -27 -8 -69 -15 -94 -15
-25 0 -54 -7 -64 -15 -11 -8 -36 -15 -56 -15 -20 0 -45 -7 -56 -15 -10 -8 -33
-15 -50 -15 -16 0 -39 -7 -50 -15 -10 -8 -33 -15 -50 -15 -17 0 -37 -7 -44
-16 -8 -9 -25 -14 -44 -12 -34 3 -39 21 -7 26 11 2 25 10 31 18 7 8 20 14 30
14 10 0 23 7 30 15 7 8 19 15 26 15 7 0 30 9 51 19 35 18 114 53 188 85 61 26
111 48 138 62 16 8 35 14 42 14 7 0 27 7 44 15 17 8 45 22 62 30 17 8 38 15
47 15 9 0 26 7 36 15 11 8 28 15 37 15 10 0 31 7 48 15 17 8 45 22 62 30 17 8
38 15 48 15 9 0 26 7 37 15 10 8 29 15 40 15 12 0 27 7 34 15 7 8 22 15 34 15
12 0 31 7 42 15 10 8 28 15 39 15 11 0 29 7 39 15 11 8 30 15 42 15 12 0 27 7
34 15 7 8 18 15 25 15 12 0 52 18 95 42 8 4 22 11 30 14 53 22 286 139 288
146 2 4 12 8 22 8 9 0 23 6 29 14 7 8 23 17 36 20 14 4 25 11 25 16 0 6 8 10
19 10 10 0 24 6 30 14 7 8 23 17 36 20 14 4 25 10 25 15 0 5 19 19 43 31 23
12 44 25 47 29 15 19 104 71 123 71 12 0 31 7 41 15 11 8 30 15 42 15 12 0 27
7 34 15 7 8 20 15 29 15 21 0 151 128 151 149 0 8 5 29 12 47 13 37 -4 136
-29 165 -7 8 -13 21 -13 28 0 7 -12 30 -27 50 -48 63 -81 127 -103 197 -19 64
3 117 89 209 49 53 124 152 143 190 8 17 22 45 31 63 21 42 23 141 2 168 -8
10 -15 26 -15 36 0 20 -108 168 -159 219 -42 42 -126 99 -145 99 -8 0 -19 7
-26 15 -7 8 -27 15 -45 15 -18 0 -49 7 -70 16 -31 13 -68 14 -224 10 -237 -7
-274 -10 -287 -18 -15 -10 -88 -13 -102 -4 -7 4 -9 13 -5 19 4 7 11 41 15 77
4 36 11 100 16 144 5 43 6 92 3 108 l-6 30 -19 -21 c-10 -11 -16 -27 -13 -34
6 -17 -36 -39 -58 -31 -18 7 -20 21 -2 26 8 3 13 35 16 97 2 74 0 96 -15 118
-9 15 -17 42 -16 60 1 21 -7 42 -22 60 l-24 28 -8 -30 c-4 -16 -11 -36 -17
-43 -7 -8 -6 -21 2 -38 8 -19 8 -31 -3 -52 -7 -15 -17 -42 -21 -60 -4 -18 -13
-45 -21 -60 -8 -15 -14 -30 -14 -34 0 -4 -16 -34 -36 -68 -40 -66 -146 -177
-209 -219 -22 -14 -45 -30 -51 -36 -6 -5 -28 -19 -50 -30 -21 -11 -40 -23 -42
-27 -2 -5 -12 -8 -22 -8 -9 0 -23 -6 -29 -14 -7 -8 -27 -17 -46 -20 -19 -4
-35 -11 -35 -16 0 -5 -16 -12 -35 -16 -19 -3 -37 -10 -40 -14 -3 -5 -24 -11
-48 -15 -23 -4 -54 -14 -69 -21 -30 -16 -114 -19 -122 -5 -7 11 17 21 52 21
15 0 36 7 46 15 11 8 30 15 42 15 12 0 27 7 34 15 7 8 23 15 37 15 13 0 26 7
29 15 4 8 16 15 29 15 13 0 25 7 29 15 3 8 14 15 24 15 11 0 25 7 32 15 7 8
18 15 25 15 7 0 15 7 19 15 3 8 10 15 16 15 36 0 259 198 323 287 17 24 34 43
39 43 4 0 8 5 8 10 0 12 41 73 52 78 4 2 12 20 19 40 9 27 9 37 0 40 -6 2 -11
28 -11 65 -1 34 -7 80 -15 102 -8 22 -15 54 -15 71 0 16 -7 39 -15 50 -8 10
-15 31 -15 46 0 15 -6 33 -14 40 -8 8 -15 22 -17 32 -6 25 -24 20 -24 -7 0
-15 -7 -23 -24 -25 -29 -5 -41 12 -41 61 0 20 -9 54 -20 74 -11 21 -20 43 -20
49 0 6 -16 28 -35 48 -23 24 -35 32 -35 22 0 -9 5 -16 10 -16 14 0 13 -161 -1
-197 -6 -15 -14 -48 -19 -73 -16 -86 -42 -149 -112 -265 -48 -80 -68 -106
-159 -201 -93 -98 -250 -224 -280 -224 -19 0 -8 21 16 30 14 5 25 14 25 20 0
5 4 10 9 10 6 0 39 29 75 65 90 90 204 243 262 350 11 23 26 50 32 60 6 11 21
43 32 70 11 28 25 58 30 67 6 10 10 26 10 35 0 10 6 30 14 44 7 14 16 47 20
72 4 26 11 49 17 52 18 12 9 52 -21 93 -16 23 -30 48 -30 56 0 7 -7 19 -15 26
-8 7 -15 18 -15 24 0 16 -93 116 -108 116 -15 0 -15 -2 3 -36 24 -47 21 -276
-6 -367 -11 -40 -24 -80 -30 -89 -5 -10 -9 -25 -9 -34 0 -9 -6 -28 -14 -42 -8
-15 -29 -57 -47 -94 -17 -37 -38 -73 -45 -79 -8 -6 -14 -16 -14 -21 0 -23
-213 -278 -233 -278 -4 0 -7 6 -7 14 0 22 -41 28 -47 6 -3 -10 -13 -20 -24
-23 -14 -4 -19 -14 -19 -42 0 -33 -3 -37 -20 -32 -17 4 -20 2 -15 -14 6 -16 2
-20 -17 -18 -27 3 -88 -19 -88 -31 0 -5 9 -12 20 -15 28 -9 25 -25 -5 -25 -14
0 -25 5 -25 10 0 6 -7 10 -15 10 -18 0 -19 -12 -4 -27 18 -18 -10 -27 -37 -12
-28 14 -42 6 -25 -15 9 -11 8 -15 -5 -20 -10 -4 -22 -2 -28 4 -12 12 -46 14
-46 2 0 -4 6 -14 13 -21 10 -11 3 -12 -40 -7 -53 7 -63 1 -40 -23 10 -11 2
-12 -46 -6 -47 5 -58 4 -63 -9 -5 -12 -15 -14 -43 -10 -28 4 -41 1 -60 -15
-13 -12 -32 -21 -43 -21 -23 0 -23 -9 0 -27 14 -12 14 -15 3 -20 -72 -29 -164
-189 -176 -304 -8 -85 0 -121 28 -117 27 4 41 56 34 120 -4 32 -2 52 7 60 7 7
16 26 20 43 9 36 138 165 165 165 11 0 23 5 26 10 3 6 21 10 38 10 29 0 23 -5
-55 -51 -97 -56 -135 -99 -169 -189 -29 -76 -23 -169 14 -206 35 -34 60 -28
68 16 11 58 38 102 104 166 50 48 72 63 105 68 78 12 81 -12 6 -48 -68 -33
-141 -112 -183 -197 -40 -80 -42 -90 -31 -112 10 -19 28 -14 28 8 0 40 153
225 186 225 6 0 17 7 24 15 8 10 31 15 70 15 38 0 60 4 62 13 3 8 42 13 134
15 131 4 198 -5 192 -23 -4 -12 -266 -14 -289 -2 -11 6 -26 0 -47 -17 -16 -15
-39 -26 -51 -26 -37 0 -134 -56 -177 -102 -48 -51 -68 -83 -78 -120 -3 -16
-11 -28 -16 -28 -13 0 -13 -37 -1 -45 6 -3 15 4 21 15 6 11 15 20 20 20 15 0
12 -27 -5 -44 -19 -19 -19 -36 0 -50 13 -10 12 -16 -10 -48 -14 -21 -30 -38
-36 -38 -6 0 -25 -10 -42 -22 -63 -45 -147 -91 -148 -81 0 5 0 55 1 113 l1
106 -45 32 c-35 26 -54 32 -93 32 -27 0 -54 5 -59 10 -7 7 -26 2 -60 -15 -27
-14 -60 -25 -73 -25 -28 0 -87 34 -95 56 -5 14 -8 14 -28 0 -27 -19 -57 -20
-80 -2 -37 27 -12 44 56 38 19 -2 66 36 66 53 0 6 -4 16 -9 24 -8 12 -12 12
-25 2 -13 -11 -17 -10 -22 4 -4 10 -1 21 7 26 9 5 14 27 14 66 0 56 1 58 29
63 36 6 45 26 17 35 -14 4 -21 15 -21 31 0 13 -4 24 -10 24 -5 0 -10 -7 -10
-15 0 -8 -7 -15 -15 -15 -9 0 -15 9 -15 24 0 19 6 25 27 28 34 4 43 33 14 43
-30 9 -29 70 1 86 21 11 20 13 -31 60 -30 27 -58 49 -62 49 -13 0 -11 -14 3
-28 9 -9 7 -12 -10 -12 -15 0 -29 13 -44 40 -25 44 -48 52 -48 18 0 -33 -11
-45 -45 -52 -28 -6 -32 -3 -43 26 l-12 33 -34 -40 c-28 -33 -36 -38 -49 -27
-10 9 -17 10 -22 2 -11 -18 -21 -11 -30 23 -11 37 -23 41 -39 12 -45 -82 -67
-89 -86 -29 -14 40 -43 46 -61 12 -30 -56 -75 -66 -85 -20 -3 15 -10 37 -16
48 -7 16 -6 29 5 50 38 75 48 125 36 183 -6 31 -20 73 -31 94 -25 50 -96 127
-117 127 -9 0 -25 7 -35 15 -23 17 -72 20 -81 5 -3 -6 1 -13 9 -16 9 -3 16
-15 16 -25 0 -24 -29 -25 -93 -3 -46 16 -184 16 -252 0 -31 -8 -90 -34 -114
-51 -13 -9 -80 -35 -92 -35 -4 0 -10 7 -13 16 -7 17 22 63 40 64 7 0 14 6 17
14 3 8 16 16 28 18 31 4 37 28 7 28 -34 0 -128 -85 -128 -116 0 -32 49 -123
77 -141 25 -17 43 -10 43 16 0 39 111 121 164 121 13 0 40 7 61 16 34 14 42
14 91 -2 65 -20 74 -31 40 -44 -14 -5 -26 -14 -26 -20 0 -5 -8 -10 -19 -10
-10 0 -24 -7 -31 -15 -8 -9 -30 -15 -56 -15 -30 0 -44 -4 -44 -13 0 -19 64
-47 106 -47 22 0 37 -6 40 -15 4 -8 17 -15 30 -15 14 0 27 7 30 15 4 8 10 15
15 15 4 0 20 11 34 24 30 27 56 34 109 28 45 -5 30 -22 -20 -22 -17 0 -42 -9
-55 -19 -14 -10 -46 -31 -73 -46 -45 -25 -50 -26 -62 -11 -10 14 -28 16 -110
14 -94 -3 -99 -4 -102 -26 -4 -28 26 -43 40 -19 7 13 24 17 73 17 65 0 93 -13
52 -24 -12 -3 -44 -6 -70 -6 -57 0 -60 -19 -6 -33 49 -13 93 -11 131 7 47 22
120 46 139 46 18 0 29 -20 29 -48 -1 -11 -38 -35 -113 -72 -128 -63 -348 -182
-422 -228 -49 -31 -50 -31 -64 -12 -25 37 -33 22 -28 -57 12 -183 37 -261 108
-331 21 -22 39 -42 39 -46 0 -3 -19 -6 -43 -6 -30 0 -50 -6 -65 -21 l-23 -20
1 -456 c1 -250 -1 -457 -3 -460 -3 -2 -19 3 -37 12 -36 18 -124 24 -192 11
-41 -7 -49 -6 -54 9 -4 9 -1 20 5 25 7 4 18 18 25 31 11 23 16 24 121 24 93 0
110 3 113 16 4 21 -69 49 -128 49 -25 0 -76 -7 -115 -15 -38 -8 -73 -15 -77
-15 -15 0 -8 38 7 44 8 3 15 12 15 20 0 7 7 17 16 20 28 11 233 1 246 -12 16
-16 38 -15 38 1 0 46 -109 72 -275 65 -79 -4 -116 -2 -119 6 -3 6 -13 0 -25
-15 -11 -14 -69 -50 -128 -79 -60 -29 -119 -61 -132 -71 -34 -27 -58 -7 -27
23 7 8 16 23 20 33 6 22 17 30 111 80 35 19 75 35 88 35 12 0 28 5 34 11 6 6
75 13 160 16 130 5 151 4 165 -11 20 -19 38 -21 38 -3 -2 47 -108 91 -215 89
-38 0 -86 -2 -105 -4 -35 -3 -35 -3 -38 40 l-3 42 76 0 c42 0 85 -5 96 -11 24
-12 122 -39 127 -34 10 10 -12 45 -31 51 -12 3 -31 14 -42 24 -50 44 -87 53
-217 58 -116 4 -128 6 -128 22 0 10 16 28 36 40 30 19 44 22 87 16 100 -12
156 -25 180 -41 25 -16 57 -11 57 9 0 6 -11 18 -24 26 -13 8 -41 27 -63 42
-51 34 -96 46 -210 54 -69 5 -93 10 -93 21 0 7 8 16 18 20 9 3 25 13 35 22 17
14 23 14 66 -2 27 -9 62 -17 79 -17 16 0 35 -7 42 -15 7 -8 18 -15 26 -15 7 0
27 -14 44 -30 37 -36 50 -38 50 -6 0 31 -60 85 -136 121 -57 27 -95 38 -176
52 -23 3 -38 11 -38 20 0 23 -30 27 -58 6 -15 -11 -49 -25 -77 -32 -71 -17
-154 -42 -198 -57 -20 -8 -44 -14 -52 -14 -18 0 -20 30 -2 30 6 1 23 14 37 30
17 21 33 30 55 30 16 0 39 7 49 15 11 8 36 15 55 15 20 1 47 7 61 15 36 20
116 19 128 -1 7 -13 15 -15 38 -7 49 16 151 -27 223 -94 24 -24 51 -43 58 -43
18 0 17 25 -2 44 -21 20 -19 36 4 36 15 0 18 5 14 21 -4 14 0 25 11 31 20 11
14 61 -10 89 -8 8 -14 20 -14 25 0 5 -18 30 -41 56 -43 51 -151 118 -188 118
-27 0 -61 17 -61 30 0 6 23 10 51 10 41 0 60 -7 103 -35 52 -34 126 -102 126
-115 0 -4 9 -17 20 -30 11 -13 20 -31 20 -40 0 -19 30 -50 48 -50 14 0 15 14
3 38 -4 9 -18 40 -31 67 -41 93 -141 196 -213 221 -18 6 -32 17 -32 25 0 21
81 13 122 -12 36 -22 123 -115 123 -131 0 -6 9 -29 19 -52 11 -23 22 -49 25
-58 7 -24 23 -23 31 1 14 44 -35 178 -87 236 -36 42 -128 105 -153 105 -8 0
-25 10 -38 23 -17 17 -34 22 -77 23 -57 0 -112 10 -263 46 -66 16 -87 25 -82
35 3 8 5 19 5 24 0 14 80 10 125 -6 22 -8 55 -15 73 -15 18 0 49 -7 69 -15 19
-8 53 -15 74 -15 30 0 42 -6 59 -30 19 -27 27 -30 74 -30 35 0 58 -5 66 -15 7
-8 18 -15 24 -15 32 0 112 -118 122 -180 4 -22 10 -43 15 -46 5 -2 11 -27 15
-54 4 -33 11 -50 20 -50 23 0 18 124 -7 199 -24 69 -101 159 -161 187 -71 33
-93 47 -79 52 22 7 94 -20 125 -48 45 -38 106 -104 106 -113 0 -5 7 -15 15
-23 8 -9 15 -28 15 -44 0 -16 5 -30 12 -32 7 -3 14 -32 16 -76 3 -52 8 -72 18
-72 20 0 27 42 22 121 -7 97 -59 200 -133 267 -54 48 -60 62 -23 62 10 0 18 5
18 10 0 6 -7 10 -16 10 -9 0 -27 9 -41 20 -14 11 -38 20 -54 20 -15 0 -31 5
-34 10 -8 13 -78 13 -91 0 -6 -6 -21 -6 -39 -1 l-30 8 28 8 c15 4 27 11 27 16
0 13 -64 11 -77 -2 -8 -8 -16 -8 -30 0 -17 10 -17 11 5 17 12 3 22 10 22 15 0
13 -58 11 -62 -3 -3 -7 -14 -9 -32 -4 -30 7 -26 21 9 28 19 5 19 5 2 13 -11 4
-28 2 -42 -5 -25 -14 -60 -7 -50 10 3 5 13 10 21 10 19 0 18 16 -1 24 -9 3
-18 -1 -21 -9 -7 -16 -49 -21 -59 -6 -3 5 5 11 17 13 29 4 35 28 9 35 -12 3
-21 11 -21 18 0 13 31 45 44 45 6 0 46 16 121 50 11 5 49 17 85 26 36 9 70 21
77 27 7 5 27 13 45 17 30 8 140 44 213 71 17 6 46 15 65 19 71 17 126 33 160
45 19 7 51 18 70 24 64 23 104 31 162 31 61 0 76 -13 50 -43 -20 -23 -9 -32
56 -46 67 -14 139 -14 144 0 2 6 35 12 74 13 64 3 76 6 119 39 55 43 102 54
155 38 20 -6 102 -11 181 -11 169 0 206 -12 98 -30 l-74 -13 32 -13 c17 -7 34
-18 38 -24 3 -5 19 -10 36 -10 31 0 39 -14 13 -24 -25 -10 -74 -7 -74 4 0 6
-7 10 -16 10 -13 0 -12 -5 7 -23 13 -13 31 -26 41 -30 9 -3 22 -17 30 -31 25
-48 56 -111 62 -129 7 -22 26 -13 26 13 0 10 16 36 35 58 28 31 63 50 173 96
75 32 152 64 169 72 18 8 48 21 68 30 19 8 50 21 70 30 19 8 51 21 70 29 19 8
51 22 70 30 83 35 102 42 135 57 19 8 51 21 70 30 19 8 52 22 73 31 20 9 52
23 70 31 116 50 201 89 310 141 42 21 80 42 83 46 3 5 15 9 28 9 12 0 35 14
51 30 16 17 34 30 41 30 6 0 14 7 18 15 3 8 15 15 26 15 11 0 23 7 26 15 4 8
12 15 19 15 8 0 20 6 27 13 7 7 21 16 31 20 9 3 17 11 17 17 0 17 -28 11 -68
-13 -20 -13 -67 -40 -104 -60 -37 -20 -75 -41 -85 -46 -22 -12 -189 -90 -258
-120 -27 -12 -59 -26 -70 -31 -11 -5 -42 -18 -70 -30 -27 -12 -59 -25 -70 -30
-11 -5 -42 -18 -70 -30 -27 -12 -59 -25 -70 -30 -11 -5 -42 -18 -70 -30 -27
-12 -59 -25 -70 -30 -84 -38 -115 -50 -125 -50 -5 0 -18 -5 -28 -10 -27 -16
-304 -118 -339 -125 -18 -4 -33 -11 -33 -16 0 -12 -87 -12 -95 1 -3 6 -26 10
-51 10 -40 0 -44 2 -44 25 0 16 6 25 15 25 17 0 115 70 115 82 0 13 -33 9 -64
-7 -30 -16 -96 -21 -96 -7 0 4 43 39 95 77 115 85 124 100 58 90 -27 -3 -58
-13 -70 -21 -12 -8 -44 -14 -70 -14 -60 0 -76 -10 -68 -41 5 -21 0 -26 -39
-42 -36 -15 -60 -17 -113 -13 -37 4 -105 9 -150 12 -46 3 -83 9 -83 13 0 5 25
11 55 13 30 3 58 7 61 11 13 13 -10 27 -45 27 -21 0 -53 3 -71 6 -56 12 -11
24 90 24 139 0 145 16 9 23 -187 9 -352 4 -356 -10 -5 -14 -53 -18 -53 -4 0 4
9 20 20 34 23 29 26 47 8 47 -19 0 -138 -132 -138 -152 0 -10 -6 -18 -12 -18
-16 0 -58 61 -58 83 0 9 -7 17 -15 17 -11 0 -15 11 -15 38 -1 20 -8 46 -18 57
-20 24 -67 55 -82 55 -25 0 -150 103 -150 124 0 8 11 32 25 52 28 41 31 64 13
82 -9 9 -4 12 23 12 29 0 45 10 91 53 162 154 207 196 253 232 27 22 55 45 61
50 6 6 34 28 63 50 49 38 55 40 125 40 43 1 90 8 112 17 57 23 198 64 526 153
29 7 81 21 116 29 34 9 89 23 122 31 33 8 86 21 118 29 31 8 80 20 107 26 28
7 68 16 90 21 71 14 139 30 189 45 26 8 59 14 71 14 13 0 36 5 52 11 15 6 48
14 73 19 25 4 65 12 90 19 25 6 62 13 83 16 21 3 35 10 32 16 -10 15 -109 11
-131 -6 -11 -8 -41 -15 -70 -15 -28 0 -68 -7 -87 -15 -20 -8 -56 -15 -79 -15
-24 -1 -54 -7 -68 -15 -14 -8 -44 -14 -66 -15 -23 0 -55 -7 -70 -15 -16 -8
-45 -15 -65 -15 -20 0 -50 -7 -65 -15 -16 -8 -43 -15 -60 -15 -17 0 -48 -7
-67 -15 -20 -8 -51 -15 -69 -15 -18 -1 -44 -7 -58 -15 -14 -8 -41 -15 -60 -15
-19 0 -46 -7 -60 -15 -14 -8 -39 -14 -56 -15 -18 0 -45 -7 -60 -15 -16 -8 -43
-15 -61 -15 -17 0 -35 -4 -38 -10 -3 -5 -20 -10 -37 -10 l-30 0 28 38 c16 20
68 76 115 124 48 49 84 90 79 93 -15 9 -70 -7 -70 -21 0 -10 -12 -12 -48 -7
-37 4 -51 2 -61 -11 -7 -9 -28 -16 -45 -16 -17 0 -40 -7 -50 -15 -11 -8 -31
-15 -45 -15 -14 0 -35 -7 -45 -15 -11 -8 -29 -15 -41 -15 -12 0 -30 -7 -41
-15 -20 -15 -70 -20 -78 -7 -2 4 14 28 37 52 23 24 58 64 77 90 87 115 293
353 378 436 50 51 92 94 92 97 0 10 -72 3 -88 -10z m-63 -87 c-24 -18 -55 -36
-69 -40 -14 -4 -36 -12 -50 -18 -14 -5 -38 -16 -55 -22 -16 -7 -46 -20 -65
-28 -19 -9 -64 -29 -100 -44 -73 -33 -342 -167 -470 -236 -207 -110 -244 -128
-254 -124 -6 2 -2 7 9 12 11 4 22 10 25 14 8 10 141 96 185 119 22 12 67 37
100 56 33 19 148 78 255 131 107 52 208 102 223 110 16 8 35 14 42 14 7 0 27
7 44 15 17 8 45 22 62 30 17 8 38 15 48 15 9 0 26 7 37 15 10 8 32 15 48 15
29 0 29 0 -15 -34z m-30 -523 c-32 -24 -70 -42 -214 -101 -66 -28 -155 -68
-197 -90 -43 -22 -78 -37 -78 -33 0 4 7 17 16 29 14 20 62 46 194 103 25 11
58 27 73 34 16 8 36 15 45 15 9 0 26 7 36 15 11 8 30 15 42 15 12 0 27 7 34
15 7 8 26 15 43 15 l30 0 -24 -17z m-2721 -885 c19 -96 34 -153 42 -163 4 -5
10 -23 14 -40 13 -52 130 -282 168 -330 5 -5 31 -40 58 -77 54 -73 150 -174
219 -231 25 -20 41 -40 38 -44 -4 -3 -15 1 -25 10 -10 10 -23 17 -28 17 -5 0
-23 12 -40 28 -16 15 -43 36 -59 46 -40 26 -194 177 -200 196 -3 8 -15 26 -28
40 -50 55 -157 259 -157 301 0 11 -6 32 -14 47 -13 26 -28 214 -19 240 9 25
20 11 31 -40z m5100 -287 c-3 -44 -9 -86 -15 -93 -6 -7 -14 -28 -18 -46 -4
-18 -13 -45 -21 -60 -8 -15 -14 -32 -14 -39 0 -6 -3 -13 -7 -15 -5 -1 -19 -24
-33 -50 -55 -102 -218 -270 -334 -343 -17 -10 -33 -22 -36 -25 -3 -4 -26 -17
-52 -30 -27 -13 -48 -27 -48 -31 0 -4 -13 -10 -30 -14 -16 -4 -30 -11 -30 -16
0 -5 -6 -9 -12 -9 -7 -1 -31 -9 -53 -20 -42 -20 -135 -27 -135 -10 0 6 8 13
18 16 50 17 153 65 197 94 17 11 38 23 48 26 9 4 17 10 17 14 0 5 9 11 20 15
36 12 330 312 330 338 0 3 20 35 44 70 24 35 47 73 50 85 4 12 12 22 17 22 5
0 9 8 9 19 0 10 7 24 15 31 8 7 15 20 15 29 0 9 6 25 14 36 7 11 17 35 21 53
3 17 11 32 17 32 7 0 9 -28 6 -79z m-4328 -68 c0 -5 -28 -22 -63 -39 -34 -17
-99 -50 -144 -73 -94 -47 -103 -49 -103 -21 0 11 4 20 10 20 5 0 53 20 106 45
53 25 101 45 107 45 7 0 21 7 31 15 21 16 56 20 56 8z m1197 -98 c17 -9 33
-24 36 -35 8 -31 35 -24 46 13 9 30 9 29 10 -21 1 -59 -16 -77 -48 -48 -10 9
-22 16 -28 16 -17 0 -63 45 -63 61 0 13 8 29 15 29 1 0 16 -7 32 -15z m227
-30 c9 -25 -4 -45 -30 -45 -20 0 -24 5 -24 30 0 25 4 30 24 30 13 0 26 -7 30
-15z m-135 -264 c11 -7 9 -10 -8 -16 -26 -8 -49 4 -30 16 17 11 21 11 38 0z
m3337 -85 c10 -27 -84 -178 -163 -262 -43 -47 -124 -94 -159 -94 -7 0 -29 -8
-49 -17 -27 -13 -38 -14 -47 -5 -9 9 -7 13 8 19 10 4 24 11 29 15 6 5 33 25
60 45 105 78 295 271 295 301 0 16 19 15 26 -2z m-4811 -67 c4 -6 5 -12 2 -15
-7 -7 -37 7 -37 17 0 13 27 11 35 -2z m1645 -14 l24 -25 -20 -34 c-27 -48
-106 -136 -121 -136 -16 0 -17 15 0 32 29 33 47 82 47 134 0 50 2 54 23 54 13
0 34 -11 47 -25z m2120 16 c0 -12 -20 -25 -27 -18 -7 7 6 27 18 27 5 0 9 -4 9
-9z m-3715 -30 c7 -12 -12 -24 -25 -16 -11 7 -4 25 10 25 5 0 11 -4 15 -9z
m3669 0 c7 -11 -22 -23 -35 -15 -5 3 -7 10 -4 15 8 12 32 12 39 0z m-3500 -77
c4 -10 13 -13 25 -9 25 8 71 -4 71 -19 0 -7 15 -10 43 -8 30 3 47 -1 56 -12 8
-9 29 -16 48 -16 27 0 34 -4 31 -17 -4 -24 -32 -28 -69 -9 -17 9 -46 18 -65
22 -18 3 -38 12 -45 20 -6 8 -29 14 -50 14 -21 0 -40 4 -44 9 -3 6 -26 13 -50
17 -58 8 -58 24 -1 24 31 0 46 -5 50 -16z m3386 6 c0 -5 -8 -10 -17 -10 -10 0
-28 -3 -40 -6 -17 -5 -23 -2 -23 10 0 12 10 16 40 16 22 0 40 -4 40 -10z
m-106 -16 c9 -3 13 -10 10 -15 -7 -12 -84 -12 -84 0 0 17 45 26 74 15z m-91
-39 c-1 -5 -19 -15 -40 -20 -21 -6 -48 -16 -61 -23 -26 -15 -62 -7 -62 14 0 9
11 14 34 14 21 0 36 6 40 16 4 11 17 14 48 12 24 -2 42 -7 41 -13z m257 -69
c0 -21 -8 -26 -67 -40 -145 -35 -220 -49 -276 -50 -40 -1 -62 -6 -70 -16 -7
-9 -33 -24 -58 -33 -61 -23 -164 -117 -189 -173 -11 -24 -23 -65 -27 -91 l-7
-48 -7 55 c-5 38 -3 64 6 85 7 17 17 41 21 55 3 13 12 29 18 36 6 6 20 24 31
40 11 15 38 40 59 56 32 23 49 28 98 28 44 0 58 4 58 14 0 26 30 46 69 46 21
0 55 7 74 15 20 8 51 15 69 15 18 0 51 7 73 15 22 8 59 14 83 15 38 0 42 -2
42 -24z m-2010 -10 c0 -14 -29 -31 -38 -21 -6 6 18 35 29 35 5 0 9 -6 9 -14z
m-2715 -127 c66 -50 135 -92 207 -127 26 -13 50 -27 53 -33 4 -5 14 -9 24 -9
10 0 24 -7 31 -15 7 -8 20 -15 30 -15 10 0 23 -7 30 -15 7 -8 23 -15 35 -15
12 0 28 -7 35 -15 7 -8 27 -15 45 -15 18 0 38 -7 45 -15 7 -9 29 -15 52 -15
21 0 55 -7 75 -15 19 -8 63 -15 97 -16 90 -1 116 -15 45 -24 -76 -10 -409 24
-432 44 -7 5 -28 13 -47 16 -19 3 -36 10 -38 16 -2 5 -11 9 -19 9 -8 0 -43 16
-77 36 -65 39 -286 253 -286 277 0 8 -7 18 -16 21 -8 3 -12 11 -8 17 4 7 16 0
33 -18 14 -15 53 -49 86 -74z m2417 71 c-41 -39 -27 -52 38 -35 54 14 60 12
60 -20 0 -27 -29 -53 -105 -92 -90 -46 -129 -67 -135 -73 -3 -3 -16 -11 -30
-17 -14 -7 -44 -24 -67 -38 l-43 -26 -11 25 c-18 40 -29 21 -29 -51 l0 -66 28
28 c15 15 36 31 47 36 11 5 34 18 50 29 17 11 36 22 43 25 6 3 18 7 25 10 6 3
26 14 42 25 61 40 77 43 114 23 49 -26 57 -44 37 -83 -9 -18 -16 -44 -16 -58
0 -20 2 -22 15 -12 15 13 54 5 41 -8 -4 -4 -26 -11 -49 -17 l-42 -10 3 -50 c3
-50 2 -50 -45 -82 -39 -27 -58 -33 -99 -33 -29 0 -58 6 -70 15 -10 8 -29 15
-41 15 -16 0 -25 8 -29 25 -3 14 -14 31 -23 38 -10 6 -35 64 -55 127 -21 63
-45 122 -52 131 -20 22 -17 29 11 29 14 0 28 7 31 15 6 15 64 52 179 116 101
55 109 59 133 59 12 0 22 5 22 10 0 6 10 10 22 10 l22 0 -22 -20z m761 -46
c-22 -17 -55 -18 -71 -2 -17 17 -15 28 6 28 9 0 31 9 47 20 l30 20 3 -26 c2
-16 -3 -31 -15 -40z m152 55 c10 -16 -15 -69 -33 -69 -18 0 -52 28 -52 43 0 5
9 7 20 4 14 -4 25 1 33 14 13 21 23 24 32 8z m-420 -43 c-15 -22 -61 -40 -77
-29 -32 19 40 80 74 62 17 -9 17 -12 3 -33z m116 -30 c-17 -16 -25 -18 -39
-10 -25 16 -21 30 18 59 l35 26 3 -27 c2 -17 -4 -34 -17 -48z m-403 33 c3 -22
-2 -27 -25 -32 -35 -7 -43 -2 -43 28 0 42 63 45 68 4z m128 -18 c-19 -36 -36
-39 -61 -11 -15 17 -16 20 -3 20 9 0 26 9 39 19 32 26 45 11 25 -28z m683 40
c8 -5 11 -16 8 -25 -8 -21 -43 -21 -51 0 -11 30 13 44 43 25z m-2166 -66 c43
-8 105 -15 138 -15 64 0 75 -11 31 -34 -24 -12 -47 -13 -133 -6 -131 12 -219
31 -219 46 0 27 70 31 183 9z m3496 6 c7 -5 11 -13 7 -19 -8 -13 -49 -21 -181
-35 -60 -7 -116 -16 -123 -21 -8 -5 -18 -2 -25 7 -7 8 -21 17 -31 19 -46 8 -9
24 71 30 49 5 106 12 128 17 53 12 137 13 154 2z m-1505 -65 c8 -29 -1 -35
-42 -33 -31 2 -36 5 -34 22 2 11 11 28 19 37 12 13 19 15 33 5 10 -6 21 -20
24 -31z m145 15 c7 -12 3 -23 -15 -40 -23 -22 -25 -22 -49 -7 -31 21 -31 25 2
52 29 23 48 22 62 -5z m2061 9 c-20 -13 -43 -13 -35 0 3 6 16 10 28 10 18 0
19 -2 7 -10z m-2345 -20 c2 -4 -3 -16 -11 -28 -20 -29 -74 -31 -74 -3 0 36 67
61 85 31z m-442 -10 c17 -8 26 -19 22 -28 -3 -7 -5 -18 -5 -23 0 -5 -9 -9 -20
-9 -11 0 -20 5 -20 11 0 6 -9 8 -20 4 -17 -5 -20 -2 -20 23 0 17 6 33 13 35
14 6 12 6 50 -13z m159 -3 c19 -30 1 -66 -24 -50 -7 4 -21 6 -30 5 -14 -3 -18
4 -18 26 0 16 3 32 7 36 10 10 56 -3 65 -17z m118 8 c14 -16 4 -55 -14 -55
-19 0 -36 22 -36 47 0 27 30 32 50 8z m-400 -4 c0 -15 -30 -41 -46 -41 -18 0
-18 9 3 32 17 19 43 24 43 9z m2845 -1 c-3 -5 -11 -10 -17 -10 -20 0 -386
-179 -468 -229 -19 -11 -46 -26 -60 -32 -13 -5 -27 -13 -30 -17 -3 -4 -26 -18
-52 -32 -27 -13 -48 -28 -48 -31 0 -4 -8 -9 -17 -13 -10 -3 -30 -14 -45 -23
-15 -10 -59 -38 -99 -63 -91 -57 -73 -45 -371 -245 -139 -93 -257 -172 -263
-174 -5 -2 -26 -16 -45 -30 -19 -14 -44 -31 -55 -38 -11 -6 -74 -44 -140 -84
-66 -40 -147 -86 -180 -103 -33 -16 -61 -33 -63 -38 -2 -4 -9 -8 -16 -8 -7 0
-67 -27 -132 -59 -65 -32 -141 -69 -169 -80 -27 -12 -59 -26 -70 -31 -119 -53
-135 -58 -135 -42 0 4 39 28 88 53 126 66 222 119 264 146 21 12 40 23 44 23
7 0 276 158 354 208 103 66 255 166 260 172 8 8 44 29 68 40 12 5 22 14 22 19
0 5 8 12 18 15 32 12 72 37 72 45 0 5 8 11 18 15 9 3 31 15 47 26 17 11 39 24
50 30 11 6 34 19 50 30 17 11 40 24 53 30 12 5 22 14 22 20 0 5 8 10 17 10 9
0 24 7 33 15 15 13 72 48 125 75 11 6 34 19 50 30 17 10 53 31 80 45 28 14 64
35 80 45 17 11 37 22 45 26 8 3 22 10 30 15 8 5 22 12 30 15 8 3 22 10 30 15
8 5 22 12 30 15 8 3 22 9 30 14 19 11 150 76 170 84 8 3 22 10 30 14 8 5 33
17 55 26 22 10 53 24 68 32 16 8 37 14 47 14 9 0 23 7 30 15 14 17 75 21 65 5z
m-5869 -80 c-22 -67 -32 -291 -17 -385 22 -143 59 -305 72 -319 5 -6 9 -16 9
-24 0 -8 7 -30 16 -50 8 -21 21 -50 28 -67 39 -93 112 -227 128 -233 4 -2 8
-8 8 -13 0 -9 36 -65 50 -79 3 -3 16 -22 30 -43 40 -59 228 -238 305 -289 98
-64 266 -148 297 -148 8 0 18 -4 23 -9 10 -9 65 -24 160 -43 28 -5 64 -14 82
-19 38 -12 267 -28 498 -36 177 -5 230 -17 129 -27 -33 -4 -84 -11 -114 -17
-74 -14 -411 -5 -525 15 -104 17 -196 38 -210 47 -5 4 -26 10 -45 14 -101 22
-333 149 -443 243 -125 108 -276 294 -353 437 -11 23 -26 50 -32 60 -6 11 -21
43 -32 70 -12 28 -25 59 -29 70 -17 39 -40 111 -46 145 -4 19 -10 40 -14 45
-14 22 -32 168 -37 296 -6 132 14 316 36 344 4 6 11 27 14 49 5 27 11 35 18
28 8 -8 6 -26 -6 -62z m5589 61 c3 -5 -5 -12 -17 -16 -21 -6 -68 -26 -110 -46
-30 -15 -105 -11 -111 6 -8 20 2 24 75 31 34 4 74 13 88 20 29 16 66 18 75 5z
m-3727 -60 c28 -17 -52 -31 -184 -31 -110 0 -134 3 -134 14 0 8 10 17 23 19
42 8 282 7 295 -2z m1779 -7 c7 -20 -9 -49 -28 -50 -8 0 -22 -4 -31 -8 -10 -5
-25 -6 -33 -2 -21 8 -19 36 3 36 11 0 27 9 37 20 22 24 43 26 52 4z m-154 -52
c-6 -25 -49 -37 -70 -21 -12 11 -9 17 24 45 34 29 39 30 45 14 4 -10 4 -27 1
-38z m297 38 c0 -11 -11 -27 -25 -36 -43 -28 -65 10 -22 39 30 22 47 21 47 -3z
m-725 -20 c8 -27 -1 -40 -29 -40 -28 0 -50 24 -42 45 9 23 63 19 71 -5z m155
-2 c0 -15 -40 -58 -54 -58 -6 0 -17 9 -24 20 -10 16 -10 20 2 20 7 0 24 9 37
19 24 19 39 19 39 -1z m697 6 c3 -8 -1 -23 -10 -31 -14 -15 -18 -15 -41 1 -14
9 -26 23 -26 31 0 21 69 20 77 -1z m-567 -14 c-14 -25 -44 -42 -64 -34 -21 8
-20 23 2 30 9 3 24 9 32 14 28 16 42 12 30 -10z m-2957 -62 c41 -30 66 -45 97
-58 14 -5 33 -15 43 -21 10 -5 36 -19 58 -31 21 -11 42 -24 45 -29 3 -5 16 -9
28 -9 13 0 29 -7 36 -15 7 -8 29 -15 49 -15 20 0 45 -7 55 -15 11 -9 41 -15
70 -15 27 0 88 -7 135 -16 81 -16 93 -16 197 1 109 18 166 15 134 -5 -8 -6
-33 -10 -55 -10 -23 0 -47 -6 -54 -12 -9 -10 -69 -13 -231 -13 -162 0 -222 3
-232 13 -6 6 -23 12 -36 12 -13 0 -36 6 -50 14 -15 7 -62 31 -104 52 -43 21
-78 42 -78 46 0 3 -9 9 -19 13 -24 7 -131 109 -131 124 0 16 8 14 43 -11z
m1452 -8 c9 -15 -45 -32 -84 -26 -41 6 -50 14 -31 26 20 13 107 13 115 0z
m162 -14 c67 -34 173 -151 173 -191 0 -24 -18 -18 -34 13 -31 59 -126 126
-196 138 -19 3 -46 8 -60 10 l-25 6 28 24 c35 30 53 30 114 0z m1696 12 c41
-19 36 -48 -8 -48 -37 0 -52 17 -41 45 7 18 14 19 49 3z m1207 -6 c30 -24 18
-42 -26 -42 -66 0 -214 -88 -214 -127 0 -7 -7 -13 -15 -13 -25 0 -18 18 30 78
45 59 64 74 125 103 46 23 73 23 100 1z m177 5 c11 -12 -4 -19 -51 -24 -47 -6
-82 9 -70 29 7 11 109 6 121 -5z m-1236 -13 c9 -11 10 -20 2 -32 -15 -25 -40
-26 -52 -3 -22 41 20 71 50 35z m3069 4 c-25 -5 -54 -14 -65 -19 -11 -4 -44
-13 -72 -19 -29 -5 -77 -15 -105 -20 -29 -6 -62 -14 -73 -19 -11 -5 -42 -13
-70 -19 -99 -21 -150 -33 -170 -42 -11 -5 -40 -13 -65 -18 -25 -6 -70 -18
-100 -26 -30 -9 -73 -21 -95 -27 -22 -6 -44 -14 -49 -20 -6 -5 -22 -9 -36 -9
-14 0 -34 -6 -45 -14 -11 -7 -37 -16 -57 -20 -21 -4 -38 -11 -38 -16 0 -6 -13
-10 -29 -10 -16 0 -36 -7 -45 -15 -8 -8 -23 -15 -33 -15 -11 0 -28 -7 -39 -15
-10 -8 -29 -15 -41 -15 -12 0 -28 -7 -37 -15 -8 -8 -24 -15 -35 -15 -11 0 -26
-7 -35 -15 -8 -8 -24 -15 -35 -15 -11 0 -26 -7 -35 -15 -8 -8 -26 -15 -39 -15
-14 0 -30 -7 -37 -15 -7 -8 -22 -15 -34 -15 -12 0 -32 -7 -44 -16 -12 -8 -34
-14 -49 -12 -25 3 -21 7 43 49 72 49 141 86 259 139 39 17 84 38 100 45 17 8
42 17 58 21 15 3 30 10 33 15 3 5 11 9 19 9 8 0 26 5 42 12 60 24 129 47 143
48 8 0 27 6 41 14 14 7 43 16 64 20 20 4 45 11 54 16 9 5 39 14 66 20 28 6 79
18 115 26 119 29 214 45 350 59 74 8 142 16 150 19 8 2 38 4 65 4 l50 0 -45
-10z m-3519 -15 c29 -17 37 -37 20 -48 -5 -3 -13 -1 -16 5 -5 8 -11 8 -20 0
-17 -14 -39 13 -30 40 8 24 9 24 46 3z m148 6 c45 -16 43 -49 -4 -49 -39 0
-63 28 -43 48 14 14 9 14 47 1z m-276 -13 c35 -27 8 -53 -38 -36 -33 12 -35
50 -2 50 12 0 30 -7 40 -14z m-153 -41 c7 -9 10 -18 7 -21 -10 -11 -37 5 -37
21 0 19 14 19 30 0z m-1331 -34 c24 -15 -3 -38 -52 -44 -23 -3 -73 -13 -112
-22 -38 -9 -88 -21 -110 -25 -22 -5 -49 -12 -60 -15 -12 -4 -15 -3 -9 2 6 4
13 16 17 26 3 9 17 17 29 17 13 0 32 7 42 15 11 8 32 15 46 15 14 0 32 6 38
13 7 6 41 15 75 18 34 3 67 7 72 7 6 1 16 -2 24 -7z m165 -16 c8 -8 19 -15 25
-15 38 0 185 -110 168 -126 -4 -4 -17 2 -30 13 -50 45 -179 103 -228 103 -28
0 -47 25 -26 34 26 10 76 5 91 -9z m1836 -14 c0 -36 -25 -59 -48 -44 -28 17
-25 40 5 56 40 21 43 20 43 -12z m1155 9 c0 -9 -11 -16 -30 -18 -16 -1 -39 -7
-50 -11 -11 -5 -40 -17 -64 -27 -24 -10 -61 -31 -82 -46 -20 -14 -40 -24 -43
-21 -8 9 72 83 89 83 7 0 18 7 25 15 7 8 20 15 30 15 10 0 23 7 30 15 18 21
95 17 95 -5z m-1961 -5 c7 -18 -31 -55 -57 -55 -17 0 -18 2 -6 18 43 57 53 63
63 37z m662 -10 c9 -23 -16 -46 -45 -43 -39 5 -42 45 -4 51 15 2 32 5 36 6 4
0 10 -6 13 -14z m-561 -1 c14 -6 14 -8 -1 -25 -25 -28 -54 -25 -54 6 0 26 19
32 55 19z m133 -21 c3 -17 -2 -23 -16 -23 -11 0 -27 -3 -36 -6 -21 -8 -32 22
-15 42 19 23 63 14 67 -13z m142 14 c0 -21 -22 -37 -52 -37 -20 0 -28 5 -28
18 0 26 9 32 47 32 20 0 33 -5 33 -13z m143 6 c13 -12 -26 -43 -55 -43 -32 0
-38 23 -10 39 20 12 56 14 65 4z m-2931 -213 c10 0 26 -4 36 -10 37 -20 154
-33 307 -33 159 -1 239 10 302 39 17 7 42 14 56 14 14 0 28 4 31 9 4 5 25 12
49 16 23 4 45 12 48 17 4 6 15 8 25 6 18 -5 18 -5 -1 -13 -11 -5 -24 -15 -30
-22 -11 -14 -124 -73 -141 -73 -7 0 -25 -7 -40 -15 -16 -8 -40 -15 -55 -15
-14 0 -30 -5 -36 -11 -6 -6 -36 -15 -67 -20 -31 -5 -82 -13 -113 -19 -117 -19
-294 16 -425 83 -58 30 -173 128 -163 139 3 3 49 -16 102 -43 53 -27 105 -49
115 -49z m3700 68 c4 -7 8 -71 8 -141 l0 -128 -32 -30 c-42 -38 -55 -37 -66 5
-9 31 -77 116 -94 116 -4 0 -19 11 -34 25 -36 34 -81 55 -116 55 -28 0 -33 -2
-96 -33 -19 -9 -39 -17 -44 -17 -6 0 -20 -8 -30 -17 -91 -84 -107 -111 -119
-213 -8 -71 -7 -76 17 -112 26 -37 44 -42 44 -12 0 19 7 18 42 -8 26 -18 34
-19 50 -9 12 8 24 9 30 3 17 -17 -4 -42 -57 -67 -30 -14 -57 -30 -60 -35 -4
-6 -62 -10 -141 -10 l-134 0 0 319 c0 204 4 321 10 323 5 2 191 2 412 1 315
-2 403 -5 410 -15z m-2452 -97 c0 -14 -41 -37 -95 -51 -45 -12 -117 -46 -174
-82 -11 -7 -23 -9 -27 -5 -10 10 67 86 87 87 9 0 22 7 29 15 7 8 22 15 34 15
11 0 30 7 40 15 21 16 106 21 106 6z m2080 -65 c0 -2 3 -11 6 -20 4 -12 0 -16
-15 -16 -12 0 -37 -16 -56 -36 -63 -64 -153 -114 -96 -53 12 13 21 32 21 44 0
17 9 25 41 34 22 7 48 21 57 32 14 17 42 27 42 15z m-2450 -86 c0 -14 -60 -68
-85 -76 -11 -4 -22 -10 -25 -14 -10 -14 -220 -110 -242 -110 -7 0 -22 -7 -32
-15 -11 -8 -37 -15 -57 -15 -21 0 -41 -4 -44 -10 -4 -6 -53 -10 -115 -10 -62
0 -111 4 -115 10 -3 6 -23 10 -43 10 -20 1 -55 9 -77 20 -22 11 -43 19 -47 20
-11 0 -110 62 -132 82 -28 25 -10 36 25 15 17 -9 47 -17 67 -17 20 0 78 -7
127 -15 120 -20 381 -20 415 0 14 8 41 14 61 15 20 0 42 7 49 15 7 8 28 15 46
15 19 0 34 4 34 9 0 5 15 12 33 16 36 7 95 34 115 53 16 15 42 16 42 2z m398
-31 c-2 -18 -10 -35 -18 -40 -8 -4 -63 -30 -122 -58 -59 -28 -109 -55 -113
-61 -10 -15 -35 -12 -35 5 0 8 5 15 10 15 6 0 10 6 10 14 0 29 43 66 118 101
42 21 84 41 92 46 8 4 25 8 38 8 20 1 23 -3 20 -30z m122 -143 c0 -47 -21 -86
-46 -86 -13 0 -38 -6 -56 -14 -18 -8 -53 -22 -78 -31 -25 -10 -67 -28 -93 -41
-57 -28 -57 -28 -57 -11 0 23 87 127 106 127 6 0 17 7 24 15 7 8 20 15 30 15
10 0 23 7 30 15 7 8 27 15 46 15 18 0 36 5 39 10 3 6 17 10 31 10 19 0 24 -5
24 -24z m-450 -15 c0 -5 -17 -23 -37 -40 -21 -17 -45 -38 -53 -45 -25 -23
-203 -126 -229 -133 -14 -3 -36 -12 -50 -19 -14 -8 -37 -14 -51 -14 -14 0 -43
-7 -65 -15 -28 -10 -86 -14 -196 -15 -163 0 -210 9 -252 52 -22 22 -22 35 0
17 26 -22 449 -17 494 5 17 9 47 16 64 16 18 0 38 7 45 15 7 8 23 15 36 15 13
0 24 4 24 9 0 5 12 14 28 20 15 6 36 16 47 23 107 68 161 104 163 111 5 10 32
9 32 -2z m64 -180 c-9 -17 -36 -46 -60 -64 -24 -18 -59 -44 -77 -60 -17 -15
-42 -30 -54 -33 -13 -3 -23 -10 -23 -14 0 -4 -33 -23 -72 -42 -119 -58 -145
-68 -171 -68 -14 0 -28 -4 -31 -9 -4 -5 -44 -12 -89 -16 -73 -6 -89 -4 -131
14 -25 12 -44 26 -41 31 4 6 41 10 84 10 52 0 83 5 97 15 10 8 33 15 50 15 16
0 39 7 50 15 10 8 31 15 45 15 15 0 32 7 39 15 7 8 20 15 30 15 19 0 246 114
260 131 6 8 60 36 83 45 9 3 17 11 17 17 0 6 2 8 5 5 3 -2 -2 -19 -11 -37z
m5703 -98 c-2 -16 -4 -5 -4 22 0 28 2 40 4 28 2 -13 2 -35 0 -50z m-5192 27
c-3 -10 -1 -21 5 -25 21 -13 8 -26 -67 -64 -103 -51 -123 -62 -160 -88 -36
-27 -53 -29 -53 -8 0 24 67 115 86 115 4 0 15 6 23 14 30 26 146 84 159 79 7
-3 10 -13 7 -23z m-408 -55 c-10 -7 -17 -17 -17 -23 0 -5 -32 -39 -72 -73 -39
-35 -83 -74 -97 -87 -13 -12 -41 -32 -60 -44 -20 -12 -38 -25 -41 -28 -13 -17
-124 -70 -146 -70 -32 0 -86 28 -79 40 4 6 17 10 30 10 13 0 36 6 52 14 15 8
46 23 68 33 22 10 46 24 53 31 7 6 17 12 22 12 19 0 258 173 273 197 5 7 13
10 19 7 7 -5 5 -11 -5 -19z m4701 -12 c-38 -2 -98 -2 -135 0 -38 2 -7 3 67 3
74 0 105 -1 68 -3z m-4218 -37 c0 -8 -4 -18 -10 -21 -5 -3 -10 -17 -10 -30 0
-19 -14 -33 -69 -65 -39 -23 -82 -52 -96 -66 -45 -42 -63 0 -25 61 22 35 40
50 120 101 59 36 90 43 90 20z m3750 -22 c0 -2 -12 -4 -27 -4 -21 0 -24 3 -14
9 13 8 41 5 41 -5z m110 -74 c30 -19 -8 -35 -91 -39 -91 -4 -133 13 -60 25 23
4 44 11 47 15 7 12 85 11 104 -1z m-4270 -13 c0 -19 -201 -217 -227 -223 -32
-9 -56 2 -46 21 5 8 32 32 61 54 48 35 97 75 171 138 30 26 41 28 41 10z m711
-4 c12 -76 6 -86 -46 -72 -21 6 -56 8 -77 5 -43 -7 -49 5 -20 41 12 16 30 23
67 26 28 2 56 4 63 5 6 1 13 -1 13 -5z m-201 -62 c0 -25 -9 -36 -54 -66 -29
-19 -64 -46 -77 -59 -68 -66 -106 -47 -55 28 33 49 47 61 107 95 69 38 79 38
79 2z m-360 -20 c0 -11 -5 -23 -10 -26 -6 -4 -16 -21 -24 -38 -22 -53 -61 -87
-99 -87 -18 0 -36 2 -39 5 -7 7 144 162 160 164 6 0 12 -8 12 -18z m4725 -12
c11 -17 -3 -56 -22 -63 -24 -9 -62 -31 -76 -45 -6 -6 -19 -11 -28 -11 -9 0
-22 -7 -29 -15 -7 -8 -23 -15 -35 -15 -12 0 -28 -7 -35 -15 -7 -8 -21 -15 -31
-15 -10 0 -21 -5 -24 -11 -4 -5 -17 -14 -28 -20 -44 -19 -111 -67 -200 -143
-49 -43 -56 -51 -40 -57 13 -6 10 -8 -14 -8 -18 -1 -36 -7 -40 -14 -13 -22
-165 -97 -196 -97 -9 0 -18 -4 -22 -9 -3 -5 -19 -12 -36 -16 -17 -4 -42 -13
-57 -21 -15 -8 -34 -14 -43 -14 -9 0 -19 -3 -22 -6 -10 -11 -120 -54 -137 -54
-8 0 -24 -7 -34 -15 -11 -8 -32 -15 -46 -15 -14 0 -31 -5 -38 -12 -9 -9 -15
-9 -24 0 -7 7 -8 12 -2 12 6 0 21 9 34 20 13 11 32 20 42 20 10 0 21 7 24 15
4 8 17 15 30 15 14 0 27 7 30 15 4 8 17 15 31 15 13 0 31 7 39 15 9 8 24 15
33 15 10 0 24 7 31 15 7 8 22 15 34 15 11 0 30 7 40 15 11 8 27 15 37 15 9 0
22 7 29 15 7 8 20 15 30 15 10 0 23 7 30 15 7 8 19 15 27 15 33 0 152 108 176
160 4 8 16 29 27 45 11 17 27 44 36 60 22 41 83 95 108 95 12 1 32 7 46 15 14
8 43 15 65 15 22 0 51 7 65 15 14 8 48 15 75 15 28 0 57 5 65 10 20 13 67 13
75 -1z m-4157 -43 c5 -24 -16 -46 -44 -46 -30 0 -31 23 -3 51 23 23 42 21 47
-5z m231 15 c12 -8 8 -11 -15 -16 -16 -4 -49 -13 -73 -21 -56 -18 -70 -18 -77
1 -12 31 15 45 85 45 36 0 73 -4 80 -9z m2928 -5 c46 -23 112 -37 227 -47 61
-5 111 -11 113 -13 1 -1 -4 -11 -11 -22 -13 -17 -27 -19 -134 -19 -67 0 -129
5 -143 11 -13 6 -57 22 -97 34 -79 24 -90 33 -72 55 16 19 80 19 117 1z
m-3267 -50 c0 -15 -21 -26 -51 -26 -26 0 -24 19 4 30 32 13 47 12 47 -4z
m3014 -56 c5 0 25 -13 46 -30 21 -16 43 -30 48 -30 6 0 17 -6 24 -12 22 -21
78 -48 98 -48 9 0 23 -7 30 -15 7 -8 27 -15 46 -15 30 0 54 -20 54 -45 0 -12
-163 16 -196 33 -11 5 -41 20 -69 33 -27 13 -78 44 -113 69 l-63 45 26 23 c25
21 29 22 44 8 10 -9 21 -16 25 -16z m-218 -89 c10 -10 29 -29 40 -42 52 -58
196 -169 220 -169 8 0 14 -7 14 -15 0 -19 -33 -19 -68 -2 -15 8 -45 22 -67 33
-61 28 -215 151 -215 171 0 6 43 42 51 43 3 0 14 -8 25 -19z m-160 -158 c55
-54 169 -155 202 -179 12 -8 12 -13 3 -19 -13 -7 -74 19 -99 43 -7 6 -17 12
-22 12 -5 0 -48 38 -96 84 -62 59 -85 88 -81 100 11 27 32 18 93 -41z m819
-13 c3 -5 -3 -10 -15 -10 -12 0 -18 5 -15 10 3 6 10 10 15 10 5 0 12 -4 15
-10z m-1015 -28 c0 -11 49 -70 124 -149 48 -51 56 -64 42 -69 -9 -4 -25 1 -35
10 -10 9 -23 16 -29 16 -6 0 -17 6 -24 13 -7 6 -31 24 -53 39 -61 40 -105 82
-105 98 0 9 12 23 28 32 29 19 52 23 52 10z m880 -29 c26 -8 -8 -21 -76 -28
-43 -5 -64 -4 -69 5 -10 16 -1 22 42 30 36 7 68 5 103 -7z m-1002 -145 c34
-34 62 -66 62 -70 0 -14 -27 -9 -40 7 -7 8 -17 15 -22 15 -8 0 -61 37 -101 70
-12 11 4 40 22 40 10 0 45 -28 79 -62z m735 26 l68 -6 -53 -25 c-29 -13 -57
-31 -61 -39 -4 -8 -17 -14 -27 -14 -25 0 -27 35 -2 49 15 9 14 10 -8 11 -42 1
-70 12 -70 27 0 12 9 14 43 9 23 -4 73 -9 110 -12z m-325 -98 c3 -13 -1 -17
-14 -14 -11 2 -20 11 -22 22 -3 13 1 17 14 14 11 -2 20 -11 22 -22z m150 -21
c11 -11 -13 -25 -42 -25 -19 0 -39 -7 -46 -15 -7 -8 -25 -15 -40 -15 -15 0
-33 -7 -40 -15 -7 -8 -23 -15 -37 -15 -13 0 -31 -7 -39 -15 -9 -8 -27 -15 -42
-16 l-27 -1 29 -8 c16 -5 33 -7 37 -5 4 3 15 2 24 -2 14 -5 11 -9 -16 -24 -19
-10 -41 -18 -50 -19 -9 0 -22 -7 -29 -15 -7 -8 -26 -15 -42 -15 -16 0 -31 -6
-34 -15 -4 -9 -19 -15 -35 -15 -17 0 -32 -6 -35 -15 -4 -9 -19 -15 -40 -15
-24 0 -34 -5 -34 -15 0 -10 -11 -15 -35 -15 -19 0 -35 -4 -35 -10 0 -18 -39
-10 -60 12 -16 17 -23 19 -32 10 -7 -7 -20 -12 -30 -12 -10 0 -18 -4 -18 -10
0 -5 7 -10 15 -10 8 0 15 -9 15 -20 0 -11 -6 -20 -13 -20 -7 0 -23 9 -35 20
-12 11 -25 20 -31 20 -15 0 -51 65 -51 93 0 28 25 51 147 131 63 42 77 47 105
41 44 -9 72 -9 140 0 47 6 58 11 60 29 2 13 9 19 18 17 8 -2 55 -8 103 -13 66
-7 92 -6 103 3 21 18 82 28 129 23 21 -3 41 -7 43 -9z m-940 -123 c2 -7 -3
-12 -12 -12 -9 0 -16 7 -16 16 0 17 22 14 28 -4z m-36 -30 c14 -12 21 -12 32
-3 11 10 19 9 35 -1 35 -21 25 -38 -21 -38 -60 0 -86 9 -93 31 -13 40 8 45 47
11z m-89 -69 c-4 -10 -9 -11 -16 -4 -5 5 -7 18 -3 28 6 14 9 15 16 4 4 -8 6
-21 3 -28z m1352 7 c-3 -5 -19 -10 -36 -10 -16 0 -29 5 -29 10 0 6 16 10 36
10 21 0 33 -4 29 -10z m-140 -30 c-11 -5 -30 -9 -42 -9 -12 -1 -39 -8 -60 -17
-21 -9 -47 -20 -58 -24 -49 -18 -115 -46 -173 -72 -35 -15 -66 -28 -69 -28 -2
0 -59 -27 -125 -60 -115 -58 -158 -71 -158 -50 0 22 345 184 449 210 18 5 38
13 44 19 6 6 27 11 47 11 20 0 45 7 56 15 10 8 39 14 64 14 34 0 40 -2 25 -9z
m-1080 -20 c12 -13 18 -37 19 -77 l1 -58 -33 -3 c-20 -2 -45 5 -66 17 -18 12
-39 21 -46 21 -6 0 -20 10 -30 22 -24 30 -10 58 28 58 16 0 33 5 40 12 7 7 12
8 12 2 0 -6 13 -25 29 -43 33 -36 53 -26 27 14 -30 46 -16 73 19 35z m-219
-95 c-8 -22 -32 -13 -28 11 7 42 14 50 24 27 6 -12 8 -29 4 -38z m311 2 c-14
-32 -27 -35 -27 -7 0 11 7 20 15 20 8 0 15 5 15 12 0 6 2 9 5 6 3 -2 -1 -16
-8 -31z m1463 -7 c-8 -5 -44 -10 -80 -10 -35 0 -82 -6 -105 -14 -22 -8 -85
-28 -140 -46 -55 -18 -125 -43 -155 -57 -30 -13 -68 -30 -85 -37 -74 -32 -128
-58 -245 -115 -87 -42 -132 -59 -147 -55 -13 4 -23 9 -23 13 0 11 272 144 390
190 30 12 68 29 83 37 16 8 38 14 50 14 12 0 31 7 41 15 11 8 33 15 48 15 16
0 41 6 56 14 15 7 51 16 81 19 30 4 59 11 65 17 5 5 48 10 96 10 58 0 80 -3
70 -10z m-1667 -57 c4 -2 7 -26 7 -54 0 -41 -3 -49 -19 -49 -29 0 -82 96 -63
115 6 5 59 -3 75 -12z m-213 -33 c0 -11 -6 -20 -13 -20 -19 0 -27 10 -20 26 8
21 33 17 33 -6z m91 10 c10 -6 19 -17 19 -26 0 -8 7 -17 15 -20 17 -7 21 -34
5 -34 -6 0 -13 6 -16 14 -3 8 -16 17 -30 20 -17 5 -24 13 -24 31 0 28 3 29 31
15z m372 -62 c3 -10 11 -18 17 -18 5 0 10 -7 10 -15 0 -10 -10 -15 -34 -15
-18 0 -39 7 -46 15 -7 8 -18 15 -25 15 -14 0 -79 69 -72 77 8 7 60 -23 90 -52
22 -23 28 -25 33 -11 3 8 -1 23 -10 31 -17 18 -20 28 -9 38 6 7 33 -32 46 -65z
m-386 -43 c3 -9 -2 -24 -11 -34 -10 -11 -16 -36 -16 -67 -1 -33 -7 -56 -19
-71 -18 -21 -20 -22 -50 -7 -26 13 -29 19 -24 45 4 22 2 29 -11 29 -9 0 -16
-5 -16 -10 0 -6 -11 -15 -25 -20 -14 -5 -25 -14 -25 -20 0 -19 -29 -10 -35 11
-13 39 4 67 62 104 45 28 67 35 97 33 24 -1 41 2 44 10 5 17 21 15 29 -3z
m293 -41 c0 -12 -7 -38 -15 -57 -12 -28 -19 -35 -33 -30 -24 10 -83 74 -76 84
10 17 35 9 44 -16 5 -14 14 -25 20 -25 5 0 10 11 10 25 0 14 -4 25 -10 25 -5
0 -10 11 -10 25 l0 25 35 -17 c24 -12 35 -23 35 -39z m343 18 c24 -15 42 -33
40 -39 -5 -13 -154 -93 -173 -93 -5 0 -10 5 -10 11 0 11 88 149 95 149 3 0 24
-12 48 -28z m-554 -11 c8 -14 5 -22 -16 -39 -14 -12 -30 -19 -35 -16 -7 5 -2
48 9 67 8 13 32 7 42 -12z m-351 -8 c5 -17 -26 -29 -40 -15 -6 6 -7 15 -3 22
9 14 37 9 43 -7z m673 -25 c10 -13 18 -31 19 -40 0 -10 5 -18 10 -18 6 0 10
-9 10 -19 0 -17 -5 -18 -42 -14 -47 6 -68 18 -68 39 0 16 16 19 25 4 9 -15 35
-12 35 4 0 7 -7 19 -15 26 -17 14 -20 40 -4 40 6 0 19 -10 30 -22z m-831 -44
c-15 -17 -36 -18 -46 -3 -4 7 4 20 17 30 21 15 25 16 32 3 5 -9 4 -21 -3 -30z
m2110 10 c0 -4 -12 -28 -27 -53 -33 -54 -56 -101 -78 -155 -14 -35 -14 -42 -1
-54 12 -13 23 -13 68 -3 113 26 168 34 175 27 5 -5 3 -11 -4 -13 -53 -19 -220
-167 -434 -384 -135 -137 -253 -249 -261 -249 -40 0 15 104 111 207 54 59 118
148 124 172 9 35 -18 86 -64 122 -22 17 -39 36 -39 43 0 16 169 181 240 233
105 78 155 111 173 112 9 1 17 -2 17 -5z m-1560 -38 c0 -38 17 -40 30 -3 12
32 12 32 23 9 8 -18 7 -31 -7 -58 -9 -20 -22 -34 -28 -32 -18 6 -51 76 -44 93
9 24 26 17 26 -9z m-488 -48 c-15 -15 -27 14 -17 40 6 15 8 15 18 -6 7 -16 7
-26 -1 -34z m-142 -35 c0 -24 -23 -25 -47 0 -22 21 -23 27 -13 47 l12 23 24
-29 c13 -16 23 -34 24 -41z m840 1 c0 -33 -28 -86 -43 -81 -23 7 -68 73 -61
91 9 23 37 16 44 -12 6 -28 24 -31 28 -5 9 50 32 55 32 7z m462 24 c7 -7 60
-44 118 -83 57 -38 112 -77 122 -85 22 -18 23 -43 3 -60 -8 -7 -15 -17 -15
-22 0 -14 -71 -131 -84 -140 -6 -4 -30 -4 -55 -1 -32 4 -42 3 -37 -5 4 -7 18
-12 32 -12 13 0 32 -7 42 -15 9 -8 36 -31 60 -51 41 -36 42 -38 42 -99 0 -47
-4 -64 -15 -69 -8 -3 -15 -13 -15 -22 0 -8 -6 -14 -12 -11 -8 2 -11 15 -9 28
3 13 5 44 5 69 l1 44 -85 48 c-122 68 -217 95 -223 63 -1 -5 8 -11 20 -13 12
-2 27 -10 33 -18 7 -8 23 -14 35 -14 12 0 28 -7 35 -15 7 -8 16 -15 20 -15 4
0 33 -16 64 -36 53 -35 56 -39 56 -78 0 -23 -9 -59 -21 -80 -27 -51 -20 -57
31 -28 8 5 29 16 45 25 17 8 31 25 33 36 2 12 7 21 11 21 4 0 13 11 19 25 9
20 16 24 28 17 9 -5 25 -7 35 -5 26 7 24 -12 -5 -50 -31 -43 -56 -96 -56 -121
0 -43 -15 -51 -97 -51 -59 0 -85 5 -105 19 -36 24 -35 34 5 41 l32 6 0 80 c0
74 -2 83 -27 108 -31 30 -153 94 -210 109 -34 9 -38 8 -38 -8 0 -12 16 -26 45
-40 61 -30 175 -142 175 -173 0 -41 -23 -78 -52 -84 -21 -4 -28 -11 -28 -29 0
-18 11 -28 53 -47 28 -14 73 -28 100 -31 61 -9 191 10 242 36 24 12 146 127
301 284 144 145 268 264 276 264 9 0 18 7 22 15 6 16 26 21 26 6 0 -4 -50 -57
-111 -117 -150 -148 -220 -221 -324 -339 -48 -55 -91 -102 -95 -105 -3 -3 -17
-21 -30 -40 -38 -56 -101 -131 -152 -182 -27 -27 -48 -52 -48 -58 0 -6 -7 -6
-18 1 -16 10 -31 6 -85 -20 -37 -17 -71 -31 -76 -31 -5 0 -22 -7 -38 -15 -15
-8 -46 -22 -68 -30 -56 -23 -105 -44 -138 -61 -16 -8 -34 -14 -42 -14 -7 0
-18 -7 -25 -15 -7 -8 -19 -15 -28 -15 -8 0 -23 -6 -31 -13 -9 -7 -36 -21 -61
-31 -25 -10 -53 -22 -62 -27 -10 -5 -26 -9 -36 -9 -27 0 -136 121 -155 173 -3
9 -11 17 -17 17 -5 0 -10 13 -10 28 0 25 7 32 55 52 30 13 55 27 55 31 0 4 12
12 28 18 31 13 99 51 160 92 24 16 45 29 48 29 6 0 125 89 134 100 21 24 67
50 90 50 27 0 43 14 67 57 10 18 8 28 -19 67 -31 47 -93 103 -138 123 -14 7
-63 21 -110 33 -86 21 -116 36 -158 73 l-23 21 -43 -48 c-46 -50 -70 -48 -40
3 25 43 56 55 139 55 40 1 77 4 81 8 8 9 -22 158 -41 203 -41 96 -42 99 -31
137 6 20 15 40 19 45 10 9 46 -35 47 -56 0 -8 9 -32 19 -55 11 -23 27 -59 36
-81 30 -72 49 -105 62 -105 7 0 13 -7 13 -15 0 -9 9 -15 25 -15 14 0 25 4 25
9 0 5 -11 12 -25 15 -36 9 -33 49 9 100 19 23 55 78 82 121 70 118 80 127 106
103z m1398 -4 c0 -17 -49 -110 -96 -179 -70 -105 -190 -229 -334 -343 -194
-154 -527 -487 -657 -658 -21 -27 -46 -57 -55 -68 -10 -11 -30 -38 -45 -60
-15 -23 -30 -43 -33 -46 -14 -14 -50 -70 -50 -79 0 -5 -4 -11 -8 -13 -17 -6
-142 -228 -222 -393 -52 -105 -85 -163 -88 -152 -4 19 35 154 50 171 4 6 8 16
8 22 0 7 18 50 40 96 43 88 49 98 93 166 15 24 27 46 27 49 0 3 14 22 30 43
17 21 30 41 30 44 0 8 209 287 225 301 7 6 34 39 61 75 64 85 287 313 394 404
96 81 138 116 154 131 6 6 27 22 46 35 96 67 314 286 354 355 16 28 32 52 36
55 4 3 10 15 14 28 6 19 26 32 26 16z m-210 -29 c0 -15 -10 -19 -45 -15 -25 2
-29 6 -20 19 10 17 65 14 65 -4z m-2670 -33 c1 -66 46 -68 56 -2 9 58 34 54
34 -6 0 -48 -29 -93 -59 -94 -29 0 -61 44 -61 86 0 22 3 44 6 47 12 12 24 -4
24 -31z m287 -9 c-3 -10 -5 -2 -5 17 0 19 2 27 5 18 2 -10 2 -26 0 -35z m150
0 c-3 -10 -5 -2 -5 17 0 19 2 27 5 18 2 -10 2 -26 0 -35z m883 15 c-24 -41
-84 -82 -106 -74 -19 7 -14 26 11 40 10 6 37 23 59 38 53 36 59 35 36 -4z
m-660 13 c0 -17 -38 -56 -47 -47 -4 5 -2 11 5 13 6 3 12 13 12 24 0 10 7 19
15 19 8 0 15 -4 15 -9z m-422 -64 c2 -15 -1 -27 -7 -27 -14 0 -33 38 -26 51
11 17 30 4 33 -24z m92 -43 c0 -8 -4 -14 -10 -14 -5 0 -10 9 -10 21 0 11 5 17
10 14 6 -3 10 -13 10 -21z m-379 -29 l20 -45 -22 -30 c-13 -16 -31 -30 -41
-30 -22 0 -23 9 -4 46 8 15 13 31 10 36 -6 9 5 68 12 68 3 0 14 -20 25 -45z
m207 -63 c7 -2 12 -12 12 -23 0 -30 -33 -23 -59 12 l-24 32 24 46 23 46 6 -54
c3 -30 11 -56 18 -59z m52 26 c0 -10 -4 -18 -10 -18 -5 0 -10 15 -10 33 0 24
3 28 10 17 5 -8 10 -23 10 -32z m257 -10 c-2 -13 -4 -5 -4 17 -1 22 1 32 4 23
2 -10 2 -28 0 -40z m-597 10 c0 -21 -3 -29 -10 -22 -5 5 -7 19 -4 32 9 31 14
27 14 -10z m-50 -4 c0 -9 7 -22 16 -29 19 -13 14 -47 -11 -79 -15 -19 -15 -19
-40 4 -19 17 -22 27 -14 34 8 8 13 7 16 -1 11 -32 21 -8 16 37 -4 34 -2 50 6
50 6 0 11 -7 11 -16z m431 -63 c-8 -13 -8 -22 -1 -26 6 -3 13 1 16 9 3 9 10
16 15 16 15 0 10 -20 -11 -42 l-19 -21 -20 24 c-26 31 -26 53 2 90 l22 31 3
-31 c2 -16 -2 -39 -7 -50z m759 55 c0 -17 -127 -83 -137 -72 -4 4 3 9 15 13
12 3 22 9 22 13 0 5 10 12 22 16 12 3 31 15 42 25 24 23 36 24 36 5z m834 -15
c12 -13 17 -36 17 -75 0 -46 -6 -66 -38 -120 -21 -36 -46 -68 -55 -71 -18 -6
-42 13 -70 57 -21 32 -22 42 -5 60 19 21 36 50 48 81 6 15 15 27 20 27 5 0 9
6 9 14 0 18 27 46 44 46 7 0 21 -9 30 -19z m-1844 -92 c0 -26 5 -42 15 -45 24
-9 45 15 45 52 0 40 15 52 30 24 6 -11 17 -20 25 -20 27 0 15 -36 -24 -73 -22
-21 -49 -37 -62 -37 -23 0 -99 65 -99 84 0 15 52 66 62 60 4 -3 8 -23 8 -45z
m-428 -24 c-6 -30 -6 -30 -12 -5 -4 14 -4 33 -2 44 8 31 21 -5 14 -39z m927 8
c-1 -47 -1 -47 -9 -14 -7 31 -4 61 6 61 2 0 4 -21 3 -47z m1469 16 c25 -23 22
-34 -24 -73 -52 -43 -66 -34 -40 26 8 18 17 41 20 51 7 22 17 22 44 -4z
m-2298 -33 c0 -52 -68 -349 -82 -358 -19 -12 -28 -10 -35 7 -3 9 2 24 11 34 9
10 16 35 16 57 0 21 7 48 15 58 8 11 15 41 15 67 0 32 5 49 15 53 11 4 15 21
15 61 0 42 3 55 15 55 10 0 15 -10 15 -34z m750 -20 c0 -35 5 -58 15 -66 9 -7
15 -29 15 -54 0 -23 7 -51 15 -62 8 -10 15 -38 15 -60 0 -24 6 -47 15 -54 23
-19 18 -40 -8 -40 -28 0 -33 14 -71 198 -30 142 -33 192 -11 192 11 0 15 -13
15 -54z m-670 9 c0 -19 -4 -35 -10 -35 -11 0 -14 53 -3 63 11 12 13 8 13 -28z
m580 -6 c0 -28 -13 -39 -25 -19 -8 13 5 61 16 54 5 -3 9 -18 9 -35z m-525 -86
c-9 -104 -36 -277 -45 -287 -5 -5 -21 -6 -35 -2 -25 6 -26 8 -11 25 11 12 16
36 16 78 0 42 5 64 15 73 10 9 15 32 15 76 0 52 4 67 22 84 12 11 23 20 25 20
2 0 1 -30 -2 -67z m369 40 c3 -16 13 -71 21 -123 9 -52 20 -108 25 -125 4 -16
11 -47 15 -67 l6 -38 -59 0 -59 0 -7 46 c-11 86 -8 111 15 117 21 6 22 10 16
106 -3 55 -2 102 1 105 12 12 21 5 26 -21z m105 1 c16 -21 21 -41 21 -90 0
-45 4 -65 14 -71 10 -6 16 -29 18 -72 2 -40 8 -66 16 -69 8 -2 12 9 13 35 1
21 4 49 8 63 6 21 9 16 15 -28 3 -29 9 -58 12 -65 5 -14 -78 -43 -95 -33 -6 4
-12 21 -15 39 -3 18 -12 82 -21 142 -9 61 -18 125 -21 143 -6 39 7 41 35 6z
m-729 -17 c0 -33 -11 -67 -21 -67 -10 0 -12 60 -3 84 8 21 24 10 24 -17z m360
-61 c0 -84 2 -95 21 -108 20 -13 21 -19 15 -91 l-8 -77 -59 1 -59 1 6 42 c3
22 12 64 19 91 7 28 16 75 20 105 8 74 24 130 35 130 6 0 10 -40 10 -94z m630
27 c0 -45 -18 -51 -26 -8 -8 43 2 77 16 55 6 -8 10 -29 10 -47z m-811 -55 c1
-34 -13 -58 -26 -45 -2 3 -1 36 3 74 7 57 9 63 15 38 4 -16 7 -47 8 -67z m630
-25 c1 -14 -5 -23 -14 -23 -17 0 -19 23 -8 85 l7 40 7 -40 c5 -22 8 -50 8 -62z
m-252 0 c-2 -16 -4 -5 -4 22 0 28 2 40 4 28 2 -13 2 -35 0 -50z m972 28 c65
-33 111 -51 132 -51 12 0 31 -8 44 -17 12 -10 33 -25 45 -33 13 -8 35 -25 49
-37 l26 -23 -55 -52 c-57 -55 -75 -69 -175 -142 -215 -154 -531 -283 -835
-340 -116 -22 -457 -22 -572 -1 -290 55 -572 167 -803 320 -55 37 -102 70
-105 73 -3 4 -27 25 -55 47 -93 74 -92 73 -62 84 14 5 28 15 32 20 3 6 16 11
28 11 12 0 31 7 41 15 11 8 29 15 41 15 12 0 30 7 41 15 25 19 54 19 54 0 0
-8 -8 -24 -17 -34 -55 -60 -60 -84 -21 -108 25 -16 28 -16 47 2 12 10 21 23
21 30 0 6 14 24 30 38 33 30 37 45 15 53 -8 4 -15 12 -15 19 0 7 -6 15 -12 18
-19 7 0 21 48 36 38 12 44 11 80 -11 48 -29 275 -140 329 -161 38 -14 85 -28
208 -61 141 -39 385 -51 562 -28 125 16 301 60 357 88 14 8 32 14 38 14 23 0
275 129 340 175 36 25 69 45 74 45 4 0 25 -8 45 -19z m-1559 -34 c0 -31 -11
-67 -20 -67 -13 0 -20 73 -9 87 15 17 29 7 29 -20z m1044 7 c3 -9 6 -30 6 -47
0 -18 7 -41 15 -51 14 -19 12 -36 -6 -36 -5 0 -9 10 -9 23 0 12 -7 31 -15 41
-8 11 -15 35 -15 53 0 35 14 44 24 17z m-1101 -47 c-1 -23 3 -37 12 -41 20 -7
19 -46 0 -46 -8 0 -15 9 -15 20 0 23 -4 24 -29 9 -25 -17 -71 -3 -71 20 0 21
77 84 95 78 5 -3 9 -20 8 -40z m236 -68 c1 -22 -7 -46 -18 -60 -21 -27 -38
-21 -23 8 5 10 13 43 17 73 6 42 10 50 16 35 4 -11 8 -36 8 -56z m-691 14 c-2
-10 -14 -19 -26 -21 -21 -3 -22 -1 -12 17 13 26 43 28 38 4z m-57 -55 c-1 -5
-1 -17 -1 -28 0 -11 -7 -20 -15 -20 -10 0 -15 10 -15 31 0 22 4 30 16 27 8 -2
15 -6 15 -10z m-345 -32 c10 -8 16 -17 13 -20 -10 -10 -61 13 -54 24 8 14 18
13 41 -4z m-81 -26 c0 -18 -146 -46 -170 -33 -27 16 2 34 66 42 83 11 104 9
104 -9z m-135 -94 c0 -9 -81 -68 -86 -63 -12 12 40 67 63 67 13 0 23 -2 23 -4z
m40 -83 c-1 -5 -16 -20 -36 -34 -126 -96 -299 -278 -363 -382 -32 -52 -35
-145 -6 -177 41 -46 101 -64 221 -64 60 0 128 5 150 11 21 6 62 16 89 23 95
21 130 31 140 41 5 5 17 9 26 9 14 0 54 15 134 50 94 41 115 50 124 50 6 0 11
5 11 10 0 6 12 10 28 10 26 0 25 -2 -18 -30 -131 -88 -361 -172 -555 -205
-117 -20 -175 -19 -259 2 -54 14 -78 27 -114 60 l-45 42 7 73 c3 39 12 79 19
87 7 9 21 34 32 55 30 60 175 206 292 296 100 76 123 90 123 73z m618 -99 c9
-5 -12 -53 -26 -58 -21 -8 -53 -27 -72 -44 -64 -55 -86 -72 -92 -72 -5 0 -8
-7 -8 -15 0 -8 -4 -15 -10 -15 -5 0 -31 -15 -57 -34 -27 -18 -59 -37 -73 -41
-14 -4 -28 -13 -32 -19 -4 -6 -10 -7 -14 -4 -3 4 11 22 32 40 65 56 79 71 137
140 65 77 116 128 143 144 15 9 25 8 44 -4 14 -9 26 -17 28 -18z m262 -124 c0
-5 -6 -13 -14 -17 -8 -4 -15 -16 -17 -26 -2 -10 -8 -18 -14 -17 -12 2 -7 34 6
38 5 2 9 10 9 18 0 8 7 14 15 14 8 0 15 -4 15 -10z m1470 -6 c0 -9 8 -23 18
-30 13 -10 14 -15 5 -25 -10 -10 -14 -7 -22 13 -5 15 -15 29 -20 33 -16 9 -13
25 4 25 8 0 15 -7 15 -16z m-1369 -33 l24 -19 -32 -46 c-35 -49 -42 -76 -20
-76 11 0 39 28 94 97 13 17 24 21 41 17 12 -4 22 -10 22 -15 0 -5 -27 -36 -59
-69 -47 -48 -65 -60 -90 -60 -18 0 -43 -7 -57 -16 -13 -9 -27 -15 -29 -12 -7
6 18 68 27 68 4 0 8 5 8 12 0 6 6 19 14 27 7 9 16 28 20 44 11 47 -17 42 -77
-15 -30 -29 -66 -61 -78 -70 -25 -20 -49 -23 -49 -8 0 18 39 50 61 50 12 0 42
22 72 55 57 59 73 65 108 36z m1313 -3 c10 -13 30 -35 44 -50 21 -23 23 -28 9
-28 -9 0 -17 7 -17 15 0 8 -6 15 -14 15 -8 0 -18 9 -21 20 -4 11 -15 20 -26
20 -18 0 -20 -4 -14 -32 4 -18 13 -40 21 -49 8 -8 14 -20 14 -26 0 -6 6 -13
14 -16 17 -7 27 -67 10 -67 -6 0 -17 7 -24 15 -7 8 -28 15 -47 15 -30 0 -44 9
-95 61 -60 62 -67 82 -31 87 13 2 26 -7 38 -25 25 -37 86 -103 97 -103 18 0 7
42 -22 82 -34 47 -37 63 -12 77 28 17 56 12 76 -11z m-1114 -51 c0 -7 -16 -43
-36 -81 -33 -64 -34 -69 -17 -82 17 -12 16 -13 -9 -14 -15 0 -30 -4 -33 -10
-9 -14 -25 -12 -25 3 0 6 14 39 30 72 16 33 30 65 30 70 0 6 7 21 16 33 17 24
44 30 44 9z m878 1 c5 -7 13 -28 17 -45 3 -18 11 -35 16 -38 10 -7 35 -61 42
-92 6 -26 -8 -41 -17 -18 -3 8 -18 15 -33 15 -25 0 -26 1 -11 16 15 15 14 21
-18 79 -19 34 -34 69 -34 78 0 20 23 22 38 5z m-774 -14 c9 -3 16 -10 16 -16
0 -12 -118 -128 -130 -128 -16 0 -21 19 -7 27 7 4 24 26 37 48 42 72 53 81 84
69z m678 -11 c10 -9 18 -20 18 -25 0 -11 42 -72 53 -76 10 -5 9 -32 -2 -32 -5
0 -37 27 -71 59 -42 40 -61 65 -57 75 8 21 36 20 59 -1z m-588 1 c9 -3 16 -13
16 -21 0 -14 -20 -66 -41 -105 -34 -65 44 -7 94 70 25 39 30 42 72 42 66 0 70
-22 14 -72 -65 -57 -258 -147 -235 -109 5 7 3 25 -3 40 -10 22 -9 33 4 57 8
16 15 34 15 40 0 20 25 64 37 64 6 0 18 -3 27 -6z m496 -13 c0 -11 4 -22 9
-25 5 -3 12 -21 15 -40 4 -19 11 -36 17 -38 13 -4 -11 -88 -25 -88 -24 0 -176
84 -215 118 -50 45 -50 66 -1 75 40 9 63 -4 91 -49 28 -45 59 -79 81 -87 15
-5 16 -3 6 21 -7 15 -15 32 -19 37 -11 17 -21 74 -14 85 3 5 17 10 31 10 17 0
24 -5 24 -19z m572 -25 c9 -12 17 -24 18 -28 0 -14 -41 -8 -46 7 -3 8 -14 17
-25 20 -10 4 -19 13 -19 21 0 20 49 7 72 -20z m386 7 c-2 -5 -26 -54 -53 -110
-47 -96 -65 -121 -65 -89 0 34 49 158 71 180 22 22 55 35 47 19z m-1166 -93
c28 -27 65 -56 82 -65 17 -9 38 -19 46 -24 58 -31 85 -41 108 -41 15 0 40 -7
56 -15 30 -16 121 -21 130 -7 3 5 -15 28 -40 51 -50 49 -57 69 -16 48 62 -32
99 -46 137 -51 22 -3 52 -8 68 -12 43 -10 35 24 -18 75 -25 24 -45 47 -45 52
0 14 27 10 40 -6 7 -8 20 -15 29 -15 9 0 25 -6 36 -14 11 -7 42 -16 68 -18 26
-3 51 -8 54 -12 11 -11 -21 -37 -112 -92 -51 -30 -100 -62 -111 -72 -23 -21
-67 -50 -113 -75 -18 -10 -67 -40 -110 -67 -42 -27 -98 -63 -126 -80 -27 -17
-84 -53 -125 -80 -60 -40 -207 -132 -320 -200 -178 -108 -438 -247 -541 -289
-19 -8 -53 -22 -76 -32 -23 -11 -46 -19 -51 -19 -5 0 -23 -7 -38 -15 -16 -8
-37 -15 -47 -15 -9 0 -25 -4 -35 -10 -9 -5 -39 -14 -67 -20 -165 -37 -312 -37
-383 -1 -69 35 -114 124 -127 251 -4 36 -11 70 -15 75 -5 6 -11 35 -15 66 -8
64 -13 60 90 79 39 8 77 19 86 27 8 7 25 13 36 13 21 0 148 36 173 49 9 5 30
12 48 15 17 4 34 12 37 17 4 5 13 9 20 9 23 0 237 101 385 182 36 20 81 44
100 54 19 11 37 21 40 24 3 3 21 12 40 21 19 9 64 30 100 47 105 50 137 62
159 62 11 0 35 6 53 14 18 8 40 17 48 20 36 14 125 80 160 118 13 16 31 28 38
28 8 0 37 -22 64 -50z m744 35 c4 -8 18 -15 34 -15 16 0 35 -3 44 -6 24 -9 0
-54 -29 -54 -18 1 -87 69 -80 80 9 15 25 12 31 -5z"/>
<path d="M3595 5840 c-7 -12 2 -30 16 -30 12 0 12 27 0 35 -5 3 -12 1 -16 -5z"/>
<path d="M5805 2609 c56 -11 135 -11 135 1 0 6 -35 10 -87 9 -74 -1 -82 -3
-48 -10z"/>
<path d="M4582 2279 c4 -79 23 -81 23 -2 0 37 -4 58 -13 61 -10 3 -12 -11 -10
-59z"/>
<path d="M4317 2343 c-4 -3 -7 -33 -7 -65 0 -43 3 -59 13 -56 7 3 13 28 15 66
3 57 -4 73 -21 55z"/>
<path d="M5475 2313 c9 -50 21 -62 38 -38 11 14 16 15 22 5 5 -8 2 -18 -9 -26
-19 -13 -19 -55 0 -61 7 -2 14 8 18 22 5 18 13 25 31 25 14 0 25 3 25 6 0 10
-44 54 -54 54 -4 0 -17 11 -28 25 -11 14 -26 25 -35 25 -12 0 -14 -7 -8 -37z"/>
<path d="M3499 2272 c-32 -41 -57 -79 -64 -101 -6 -20 -5 -22 13 -12 12 6 24
16 27 21 4 6 11 8 16 5 13 -8 11 -43 -2 -47 -6 -2 -10 -12 -8 -21 3 -14 13 -7
40 30 19 26 38 56 42 66 8 22 -11 22 -35 1 -16 -16 -18 -15 -24 0 -4 10 -1 28
6 42 16 30 9 40 -11 16z"/>
<path d="M5388 2264 c-4 -34 -23 -42 -31 -13 -3 11 -10 18 -16 14 -14 -8 -14
-21 2 -37 16 -19 35 -48 47 -75 13 -32 39 -30 32 2 -5 29 14 34 34 8 9 -13 16
-15 24 -7 8 8 1 17 -24 35 -27 18 -36 32 -38 58 -4 42 -25 53 -30 15z"/>
<path d="M5270 2206 c0 -7 7 -19 15 -26 8 -7 15 -18 15 -26 0 -7 6 -19 13 -26
7 -7 16 -21 20 -30 3 -10 11 -18 17 -18 16 0 12 40 -5 46 -8 4 -15 13 -15 20
0 17 -40 74 -52 74 -4 0 -8 -6 -8 -14z"/>
<path d="M3613 2193 c-13 -9 -23 -24 -23 -34 0 -10 -4 -20 -9 -24 -11 -6 -42
-65 -35 -65 18 0 44 24 44 40 0 10 4 21 9 25 10 6 43 67 39 71 -2 1 -13 -5
-25 -13z"/>
<path d="M3667 2151 c-9 -16 -17 -36 -17 -44 0 -8 -7 -20 -15 -27 -8 -7 -15
-21 -15 -31 0 -11 7 -19 15 -19 10 0 15 10 15 30 0 22 4 28 15 24 10 -4 15
-20 15 -45 0 -50 19 -51 43 0 21 46 21 57 2 65 -9 3 -15 19 -15 41 0 43 -19
46 -43 6z"/>
<path d="M3743 2135 c-3 -9 -3 -18 0 -21 9 -9 27 6 27 22 0 19 -19 18 -27 -1z"/>
<path d="M5120 2132 c0 -11 7 -25 15 -32 8 -7 15 -23 15 -37 0 -13 6 -26 14
-29 8 -3 16 -14 19 -24 4 -15 10 -17 31 -12 35 10 36 26 0 32 -22 4 -30 11
-32 30 -2 14 -9 30 -17 35 -7 6 -14 19 -16 29 -5 26 -29 33 -29 8z"/>
<path d="M3790 2074 c-26 -60 -26 -84 0 -84 14 0 20 -7 20 -21 0 -28 43 -23
48 6 2 11 10 34 19 51 9 18 13 39 9 49 -8 21 -22 10 -28 -20 -5 -27 -23 -16
-25 15 0 14 -2 31 -2 38 -2 26 -21 10 -41 -34z"/>
<path d="M5033 2039 c3 -44 7 -83 10 -85 2 -2 17 2 33 11 16 8 37 12 48 9 13
-4 17 -2 12 7 -3 8 -9 22 -12 32 -8 21 -34 23 -34 2 0 -8 -7 -15 -15 -15 -20
0 -19 27 2 38 15 9 14 13 -6 46 -36 57 -45 46 -38 -45z"/>
<path d="M3941 2054 c-12 -15 -21 -41 -21 -60 0 -38 -1 -38 37 -23 26 10 27
11 10 24 -26 19 -18 51 13 47 23 -2 23 -2 5 18 -10 11 -19 20 -21 20 -1 0 -12
-12 -23 -26z"/>
<path d="M4898 2066 c-18 -13 -23 -42 -12 -70 11 -29 24 -16 24 24 0 42 22 56
34 23 5 -13 9 -14 19 -4 9 10 8 15 -7 27 -24 17 -36 17 -58 0z"/>
<path d="M4778 2036 c-28 -21 -24 -107 6 -143 22 -26 26 -27 50 -14 35 19 36
44 0 31 -41 -16 -44 -13 -44 55 0 37 4 65 10 65 6 0 10 5 10 10 0 13 -11 12
-32 -4z"/>
<path d="M4820 2015 c0 -9 5 -15 11 -13 6 2 11 8 11 13 0 5 -5 11 -11 13 -6 2
-11 -4 -11 -13z"/>
<path d="M4046 2004 c-3 -9 -6 -36 -6 -60 0 -36 3 -44 18 -44 23 0 42 19 42
43 0 10 9 31 21 45 19 24 19 27 4 30 -9 2 -23 -5 -30 -15 -13 -17 -14 -17 -20
0 -9 21 -21 22 -29 1z"/>
<path d="M4212 2001 c-16 -10 -19 -47 -7 -74 6 -14 4 -18 -10 -15 -22 4 -40
-24 -31 -48 7 -18 9 -17 27 6 l19 25 6 -22 c4 -13 13 -23 20 -23 11 0 14 16
14 64 0 89 -8 107 -38 87z"/>
<path d="M4614 1997 c-8 -21 12 -92 25 -89 6 1 25 -11 41 -28 44 -45 54 -40
46 22 -8 62 -11 65 -31 48 -8 -7 -15 -8 -15 -3 0 11 -45 63 -55 63 -3 0 -8 -6
-11 -13z"/>
<path d="M4369 1993 c-1 -5 0 -12 2 -18 1 -5 3 -37 3 -70 1 -77 20 -83 24 -8
2 32 10 65 18 74 8 8 11 19 7 22 -9 9 -53 9 -54 0z"/>
<path d="M4556 1993 c-3 -3 -6 -37 -6 -75 0 -51 -3 -68 -14 -68 -16 0 -26 30
-26 82 0 20 -4 40 -10 43 -18 11 -12 -121 6 -139 19 -20 19 -20 49 0 23 15 25
23 25 85 0 63 -8 88 -24 72z"/>
<path d="M4947 1993 c-12 -11 -7 -23 9 -23 13 0 15 -7 10 -31 -5 -25 -3 -30
12 -27 21 4 29 53 11 74 -12 15 -31 18 -42 7z"/>
<path d="M4822 1953 c5 -25 28 -28 28 -4 0 12 -6 21 -16 21 -9 0 -14 -7 -12
-17z"/>
<path d="M4910 1945 c0 -23 24 -45 36 -33 7 7 -17 58 -28 58 -4 0 -8 -11 -8
-25z"/>
<path d="M3896 1945 c-8 -21 1 -35 20 -35 10 0 14 8 12 22 -4 27 -23 34 -32
13z"/>
<path d="M6435 8321 c-7 -12 12 -24 25 -16 11 7 4 25 -10 25 -5 0 -11 -4 -15
-9z"/>
<path d="M6182 8291 c-19 -12 24 -22 57 -14 23 6 24 7 6 14 -27 10 -47 10 -63
0z"/>
<path d="M6370 8290 c0 -5 7 -10 15 -10 8 0 15 5 15 10 0 6 -7 10 -15 10 -8 0
-15 -4 -15 -10z"/>
<path d="M6013 8263 c-26 -10 -12 -23 26 -23 46 0 73 9 65 21 -5 9 -70 11 -91
2z"/>
<path d="M6280 8254 c0 -11 8 -14 27 -12 39 4 42 28 4 28 -21 0 -31 -5 -31
-16z"/>
<path d="M6190 8225 c-14 -8 -35 -14 -47 -15 -12 0 -24 -4 -28 -9 -3 -5 -20
-13 -38 -17 -17 -3 -48 -13 -67 -22 -67 -29 -95 -40 -140 -57 -25 -9 -58 -23
-75 -30 -16 -7 -82 -34 -145 -60 -63 -26 -133 -56 -155 -65 -22 -10 -67 -30
-100 -45 -145 -64 -489 -233 -540 -266 -16 -10 -37 -22 -45 -26 -73 -33 -257
-168 -332 -244 -84 -85 -111 -132 -112 -196 0 -62 14 -79 95 -115 50 -21 66
-23 234 -22 191 1 344 21 575 76 25 6 63 14 85 19 54 11 124 28 160 41 17 6
48 13 70 17 22 4 50 13 62 19 12 7 32 12 45 12 13 0 33 7 44 15 10 8 33 15 50
15 16 0 39 7 50 15 10 8 33 15 50 15 16 0 39 7 50 15 10 8 31 15 46 15 15 0
33 7 42 15 8 8 21 15 29 15 23 0 47 11 47 21 0 15 -47 10 -60 -6 -7 -8 -27
-15 -44 -15 -17 0 -40 -7 -50 -15 -11 -8 -37 -15 -57 -15 -21 0 -41 -4 -44
-10 -3 -5 -31 -10 -61 -10 -41 0 -54 -4 -54 -15 0 -11 -13 -15 -54 -15 -30 0
-56 4 -58 9 -4 12 -427 -4 -503 -18 -82 -16 -175 -14 -181 4 -7 18 34 65 58
65 9 0 29 6 45 14 15 8 46 22 68 32 22 9 52 23 67 31 14 7 33 13 42 13 9 0 16
3 16 8 0 11 -139 3 -251 -13 -112 -17 -198 -19 -219 -5 -13 9 -12 13 9 30 13
11 35 23 50 25 14 3 46 12 71 20 25 8 53 15 62 15 10 0 32 6 50 14 18 8 98 35
178 61 80 26 150 51 155 55 12 10 83 37 135 51 19 6 44 14 55 18 11 5 47 16
80 26 33 9 76 23 95 30 19 8 47 16 63 19 15 4 27 11 27 16 0 17 22 11 69 -19
66 -42 147 -54 272 -41 144 14 237 12 284 -8 51 -22 80 -42 88 -64 8 -23 27
-23 27 0 0 10 -15 32 -32 49 -67 62 -70 63 -231 63 -122 0 -149 3 -153 15 -4
8 -17 15 -29 15 -13 0 -27 5 -30 10 -3 6 -21 10 -38 9 l-32 -1 33 -9 c35 -10
41 -23 16 -33 -27 -11 -70 -6 -90 9 -10 8 -29 15 -41 15 -14 0 -45 26 -88 75
-37 41 -72 75 -78 75 -10 0 -36 29 -37 42 0 4 21 16 48 29 26 12 59 28 74 35
14 8 35 14 46 14 11 0 25 7 32 15 7 8 21 15 30 15 10 0 32 7 49 15 17 8 45 22
62 30 17 8 39 15 49 15 9 0 23 7 30 15 7 8 23 15 36 15 12 0 29 6 37 14 8 8
27 16 42 18 16 2 30 9 33 16 5 17 -46 15 -78 -3z m-582 -982 c2 -9 -11 -13
-47 -13 -28 0 -51 4 -51 9 0 22 91 25 98 4z m-135 -28 c2 -12 -38 -19 -61 -10
-14 5 -14 7 -2 16 18 11 60 8 63 -6z m-175 -32 c-10 -2 -26 -2 -35 0 -10 3 -2
5 17 5 19 0 27 -2 18 -5z m-140 -30 c-10 -2 -26 -2 -35 0 -10 3 -2 5 17 5 19
0 27 -2 18 -5z m-195 -30 c-13 -2 -33 -2 -45 0 -13 2 -3 4 22 4 25 0 35 -2 23
-4z"/>
<path d="M2177 7536 c-8 -20 4 -125 14 -132 5 -3 10 20 11 50 1 31 2 64 2 73
1 21 -20 28 -27 9z"/>
<path d="M6690 7320 c0 -25 4 -39 10 -35 6 3 10 19 10 35 0 16 -4 32 -10 35
-6 4 -10 -10 -10 -35z"/>
<path d="M6515 7330 c-3 -5 3 -10 14 -10 12 0 21 5 21 10 0 6 -6 10 -14 10 -8
0 -18 -4 -21 -10z"/>
<path d="M5668 7293 c12 -2 30 -2 40 0 9 3 -1 5 -23 4 -22 0 -30 -2 -17 -4z"/>
<path d="M2210 7261 c0 -17 5 -33 10 -36 6 -4 10 8 10 29 0 20 -4 36 -10 36
-5 0 -10 -13 -10 -29z"/>
<path d="M6660 7174 c0 -14 4 -23 10 -19 6 3 10 15 10 26 0 10 -4 19 -10 19
-5 0 -10 -12 -10 -26z"/>
<path d="M2243 7144 c-3 -8 -1 -20 6 -27 8 -8 11 -4 11 16 0 30 -7 35 -17 11z"/>
<path d="M6467 7108 c-2 -7 -2 -38 1 -68 2 -34 -2 -80 -12 -118 -9 -35 -16
-76 -16 -91 0 -57 -74 -233 -107 -254 -18 -11 -16 -47 2 -47 8 0 15 5 15 10 0
13 72 110 81 110 4 0 9 8 13 18 3 9 15 31 26 47 11 17 24 39 30 50 6 11 19 34
30 50 11 17 22 37 26 45 3 8 10 23 15 32 12 23 39 100 39 112 0 6 -6 1 -14 -9
-15 -21 -46 -14 -46 11 0 14 -66 114 -75 114 -2 0 -5 -6 -8 -12z"/>
<path d="M6420 7045 c0 -35 4 -54 10 -50 6 3 10 26 10 50 0 24 -4 47 -10 50
-6 4 -10 -15 -10 -50z"/>
<path d="M6630 7080 c0 -19 3 -21 12 -12 9 9 9 15 0 24 -9 9 -12 7 -12 -12z"/>
<path d="M2487 7043 c-11 -10 -8 -71 3 -78 6 -4 10 12 10 39 0 47 -2 51 -13
39z"/>
<path d="M6200 6942 c0 -4 -15 -15 -32 -23 -65 -31 -123 -63 -126 -71 -2 -4
-9 -8 -15 -8 -6 0 -38 -13 -71 -29 -34 -16 -92 -43 -131 -60 -38 -18 -83 -38
-100 -46 -16 -8 -52 -23 -80 -35 -27 -12 -59 -25 -70 -30 -11 -5 -42 -18 -70
-30 -27 -12 -66 -28 -85 -36 -19 -9 -46 -20 -60 -26 -14 -5 -38 -16 -53 -24
-16 -8 -34 -14 -40 -14 -7 -1 -30 -9 -52 -20 -22 -11 -47 -19 -55 -20 -9 0
-20 -4 -25 -9 -14 -12 -238 -91 -259 -91 -9 0 -19 7 -22 15 -4 8 -13 15 -21
15 -16 0 -16 -4 9 -107 12 -52 28 -71 28 -35 0 21 39 62 59 62 7 0 25 6 39 13
15 8 45 22 67 31 22 10 53 24 68 32 16 8 37 14 47 14 9 0 23 7 30 15 7 8 23
15 35 15 12 0 28 7 35 15 7 8 23 15 35 15 12 0 28 7 35 15 7 8 23 15 35 15 12
0 28 7 35 15 7 8 23 15 35 15 12 0 28 7 35 15 7 8 23 15 35 15 12 0 28 7 35
15 7 8 23 15 35 15 12 0 28 7 35 15 7 8 23 15 35 15 12 0 28 7 35 15 7 8 19
15 27 15 8 0 27 6 41 13 15 8 42 21 60 30 19 9 39 17 47 17 7 0 18 7 25 15 7
8 20 15 30 15 10 0 23 7 30 15 7 8 20 15 30 15 10 0 23 7 30 15 7 8 21 15 31
15 10 0 22 6 26 13 9 14 37 32 71 47 12 5 22 14 22 20 0 5 6 10 14 10 17 0 85
42 86 53 0 4 -9 7 -20 7 -11 0 -20 -4 -20 -8z"/>
<path d="M6390 6860 c0 -19 3 -21 12 -12 9 9 9 15 0 24 -9 9 -12 7 -12 -12z"/>
<path d="M3677 6674 c-14 -15 7 -24 52 -24 67 0 116 11 99 21 -15 10 -142 12
-151 3z"/>
<path d="M4490 6669 c0 -6 35 -45 78 -87 82 -80 85 -105 4 -54 -60 39 -102 50
-102 29 0 -9 8 -22 18 -29 10 -7 28 -28 41 -45 l22 -33 -23 0 c-13 0 -32 7
-42 15 -26 20 -56 19 -56 0 0 -9 12 -26 26 -39 36 -30 29 -51 -10 -31 -35 18
-76 20 -76 3 0 -7 18 -24 40 -38 22 -13 50 -39 63 -57 32 -48 77 -40 77 14 0
27 7 29 29 9 9 -8 25 -16 36 -18 17 -2 21 3 23 34 2 20 -2 47 -8 58 -20 37 -3
33 37 -9 46 -49 63 -52 63 -10 0 37 -29 129 -41 129 -5 0 -9 6 -9 13 0 13 -78
97 -90 97 -6 0 -22 12 -67 50 -16 13 -33 13 -33 -1z"/>
<path d="M4880 6195 c0 -8 5 -15 10 -15 6 0 10 7 10 15 0 8 -4 15 -10 15 -5 0
-10 -7 -10 -15z"/>
<path d="M3410 6090 c0 -5 7 -10 15 -10 8 0 15 -7 15 -15 0 -7 6 -18 14 -22 8
-4 16 -19 18 -32 1 -14 9 -26 16 -29 17 -5 15 33 -3 52 -8 8 -15 18 -15 23 0
11 -37 43 -50 43 -6 0 -10 -4 -10 -10z"/>
<path d="M5400 5930 c0 -19 -5 -30 -14 -30 -20 0 -29 -18 -28 -55 1 -35 -41
-149 -51 -138 -4 3 -7 17 -7 30 0 13 -5 23 -11 23 -11 0 -10 -12 7 -105 5 -24
-1 -37 -25 -65 -17 -19 -31 -41 -31 -47 0 -25 28 -12 64 30 55 63 56 64 63 97
3 17 10 33 14 36 5 3 9 42 9 88 0 57 5 88 15 102 16 22 20 64 5 64 -5 0 -10
-13 -10 -30z"/>
<path d="M1410 3490 c0 -5 11 -10 25 -10 14 0 25 5 25 10 0 6 -11 10 -25 10
-14 0 -25 -4 -25 -10z"/>
<path d="M1495 3460 c3 -5 13 -10 21 -10 8 0 14 5 14 10 0 6 -9 10 -21 10 -11
0 -17 -4 -14 -10z"/>
<path d="M1570 2290 c0 -5 12 -10 26 -10 14 0 23 4 19 10 -3 6 -15 10 -26 10
-10 0 -19 -4 -19 -10z"/>
<path d="M1660 2261 c0 -5 6 -11 14 -14 19 -8 57 3 50 14 -7 12 -64 12 -64 0z"/>
<path d="M1770 2231 c0 -16 38 -23 82 -16 29 5 37 10 27 16 -19 12 -109 11
-109 0z"/>
<path d="M6596 1403 c-9 -10 -7 -71 3 -77 11 -7 21 17 21 49 0 25 -12 39 -24
28z"/>
<path d="M6569 1235 c-3 -16 -2 -43 1 -60 l6 -30 6 31 c4 17 3 44 -1 60 l-8
29 -4 -30z"/>
<path d="M6896 908 c-9 -34 -7 -86 3 -92 13 -8 21 19 21 70 0 47 -14 59 -24
22z"/>
<path d="M6868 710 c-4 -25 -3 -63 1 -85 l7 -40 7 45 c3 25 3 63 -1 85 l-8 40
-6 -45z"/>
</g>
</svg>
